<svg width="20" height="20" viewBox="0 0 20 20" fill="none" xmlns="http://www.w3.org/2000/svg">
<path d="M11.125 10C11.125 10.2225 11.059 10.44 10.9354 10.625C10.8118 10.81 10.6361 10.9542 10.4305 11.0394C10.225 11.1245 9.99875 11.1468 9.78052 11.1034C9.56229 11.06 9.36184 10.9528 9.2045 10.7955C9.04717 10.6382 8.94002 10.4377 8.89662 10.2195C8.85321 10.0012 8.87549 9.77505 8.96064 9.56948C9.04578 9.36391 9.18998 9.18821 9.37498 9.0646C9.55999 8.94098 9.7775 8.875 10 8.875C10.2984 8.875 10.5845 8.99353 10.7955 9.2045C11.0065 9.41548 11.125 9.70163 11.125 10ZM5.875 8.875C5.6525 8.875 5.43499 8.94098 5.24998 9.0646C5.06498 9.18821 4.92078 9.36391 4.83564 9.56948C4.75049 9.77505 4.72821 10.0012 4.77162 10.2195C4.81502 10.4377 4.92217 10.6382 5.0795 10.7955C5.23684 10.9528 5.43729 11.06 5.65552 11.1034C5.87375 11.1468 6.09995 11.1245 6.30552 11.0394C6.51109 10.9542 6.68679 10.81 6.8104 10.625C6.93402 10.44 7 10.2225 7 10C7 9.70163 6.88147 9.41548 6.6705 9.2045C6.45952 8.99353 6.17337 8.875 5.875 8.875ZM14.125 8.875C13.9025 8.875 13.685 8.94098 13.5 9.0646C13.315 9.18821 13.1708 9.36391 13.0856 9.56948C13.0005 9.77505 12.9782 10.0012 13.0216 10.2195C13.065 10.4377 13.1722 10.6382 13.3295 10.7955C13.4868 10.9528 13.6873 11.06 13.9055 11.1034C14.1238 11.1468 14.35 11.1245 14.5555 11.0394C14.7611 10.9542 14.9368 10.81 15.0604 10.625C15.184 10.44 15.25 10.2225 15.25 10C15.25 9.70163 15.1315 9.41548 14.9205 9.2045C14.7095 8.99353 14.4234 8.875 14.125 8.875ZM19.75 10C19.7504 11.6833 19.3149 13.338 18.486 14.8031C17.6572 16.2682 16.4631 17.4938 15.02 18.3605C13.577 19.2272 11.9341 19.7055 10.2514 19.7489C8.56863 19.7923 6.9033 19.3993 5.4175 18.6081L2.22531 19.6722C1.96102 19.7603 1.6774 19.7731 1.40624 19.7091C1.13509 19.6451 0.887113 19.5069 0.69011 19.3099C0.493108 19.1129 0.354864 18.8649 0.290873 18.5938C0.226882 18.3226 0.239673 18.039 0.327812 17.7747L1.39187 14.5825C0.696389 13.2749 0.307935 11.826 0.255998 10.3459C0.20406 8.86577 0.490005 7.39325 1.09213 6.04012C1.69425 4.687 2.59672 3.48882 3.73105 2.53655C4.86537 1.58428 6.20173 0.902946 7.63869 0.544257C9.07565 0.185567 10.5754 0.158954 12.0242 0.466438C13.473 0.773921 14.8327 1.40742 16.0001 2.31885C17.1675 3.23027 18.1119 4.39567 18.7616 5.72659C19.4114 7.0575 19.7494 8.51895 19.75 10ZM18.25 10C18.2496 8.73449 17.9582 7.48603 17.3981 6.3512C16.838 5.21637 16.0244 4.22559 15.0201 3.45553C14.0159 2.68547 12.8479 2.15675 11.6067 1.9103C10.3654 1.66384 9.08405 1.70625 7.86178 2.03425C6.63951 2.36224 5.50909 2.96702 4.55796 3.8018C3.60682 4.63659 2.86049 5.67899 2.37668 6.84837C1.89288 8.01775 1.68458 9.28275 1.7679 10.5455C1.85122 11.8083 2.22393 13.035 2.85719 14.1306C2.91034 14.2226 2.94334 14.3248 2.954 14.4305C2.96467 14.5362 2.95276 14.643 2.91906 14.7437L1.75 18.25L5.25625 17.0809C5.33262 17.0549 5.41275 17.0416 5.49344 17.0416C5.62516 17.0418 5.7545 17.0767 5.86844 17.1428C7.12263 17.8685 8.54581 18.251 9.99479 18.2519C11.4438 18.2528 12.8674 17.8721 14.1225 17.148C15.3776 16.424 16.4199 15.3821 17.1445 14.1273C17.869 12.8725 18.2503 11.449 18.25 10Z" fill="#999999"/>
</svg>
