<svg width="24" height="24" viewBox="0 0 24 24" fill="none" xmlns="http://www.w3.org/2000/svg">
<path d="M12 7.50001C11.11 7.50001 10.24 7.76393 9.49993 8.2584C8.75991 8.75287 8.18313 9.45567 7.84254 10.2779C7.50195 11.1002 7.41283 12.005 7.58646 12.8779C7.7601 13.7508 8.18868 14.5527 8.81802 15.182C9.44735 15.8113 10.2492 16.2399 11.1221 16.4135C11.995 16.5872 12.8998 16.4981 13.7221 16.1575C14.5443 15.8169 15.2471 15.2401 15.7416 14.5001C16.2361 13.7601 16.5 12.89 16.5 12C16.4988 10.8069 16.0243 9.66305 15.1806 8.8194C14.337 7.97576 13.1931 7.50125 12 7.50001ZM12 15C11.4067 15 10.8266 14.8241 10.3333 14.4944C9.83994 14.1648 9.45542 13.6962 9.22836 13.1481C9.0013 12.5999 8.94189 11.9967 9.05764 11.4147C9.1734 10.8328 9.45912 10.2983 9.87868 9.87869C10.2982 9.45914 10.8328 9.17341 11.4147 9.05766C11.9967 8.9419 12.5999 9.00131 13.148 9.22837C13.6962 9.45544 14.1648 9.83996 14.4944 10.3333C14.8241 10.8267 15 11.4067 15 12C15 12.7957 14.6839 13.5587 14.1213 14.1213C13.5587 14.6839 12.7956 15 12 15ZM20.25 12.2025C20.2537 12.0675 20.2537 11.9325 20.25 11.7975L21.6487 10.05C21.7221 9.95826 21.7729 9.85056 21.797 9.7356C21.8211 9.62064 21.8178 9.50162 21.7875 9.38814C21.5582 8.5262 21.2152 7.69862 20.7675 6.9272C20.7089 6.82625 20.6275 6.74037 20.5299 6.67641C20.4322 6.61245 20.321 6.57216 20.205 6.55876L17.9812 6.31126C17.8887 6.21376 17.795 6.12001 17.7 6.03001L17.4375 3.80064C17.424 3.68459 17.3836 3.57329 17.3194 3.47563C17.2553 3.37797 17.1693 3.29665 17.0681 3.23814C16.2964 2.79128 15.4689 2.44861 14.6072 2.21907C14.4936 2.18888 14.3746 2.1858 14.2596 2.21006C14.1446 2.23432 14.037 2.28526 13.9453 2.35876L12.2025 3.75001C12.0675 3.75001 11.9325 3.75001 11.7975 3.75001L10.05 2.35407C9.95825 2.28073 9.85055 2.22997 9.73559 2.20587C9.62062 2.18177 9.50161 2.18501 9.38812 2.21532C8.52633 2.44504 7.6988 2.78803 6.92719 3.23532C6.82623 3.29394 6.74036 3.37532 6.67639 3.47297C6.61243 3.57062 6.57215 3.68186 6.55875 3.79782L6.31125 6.02532C6.21375 6.11845 6.12 6.2122 6.03 6.30657L3.80062 6.56251C3.68457 6.57601 3.57328 6.61644 3.47562 6.68057C3.37796 6.7447 3.29663 6.83076 3.23812 6.93189C2.79126 7.7036 2.44859 8.53111 2.21906 9.39283C2.18887 9.50638 2.18578 9.62544 2.21004 9.74041C2.23431 9.85537 2.28524 9.96303 2.35875 10.0547L3.75 11.7975C3.75 11.9325 3.75 12.0675 3.75 12.2025L2.35406 13.95C2.28072 14.0418 2.22995 14.1495 2.20585 14.2644C2.18175 14.3794 2.18499 14.4984 2.21531 14.6119C2.44461 15.4738 2.78762 16.3014 3.23531 17.0728C3.29393 17.1738 3.3753 17.2597 3.47296 17.3236C3.57061 17.3876 3.68184 17.4279 3.79781 17.4413L6.02156 17.6888C6.11469 17.7863 6.20844 17.88 6.30281 17.97L6.5625 20.1994C6.576 20.3154 6.61643 20.4267 6.68056 20.5244C6.74469 20.6221 6.83075 20.7034 6.93187 20.7619C7.70359 21.2088 8.5311 21.5514 9.39281 21.781C9.50636 21.8111 9.62542 21.8142 9.74039 21.79C9.85536 21.7657 9.96302 21.7148 10.0547 21.6413L11.7975 20.25C11.9325 20.2538 12.0675 20.2538 12.2025 20.25L13.95 21.6488C14.0417 21.7221 14.1494 21.7729 14.2644 21.797C14.3794 21.8211 14.4984 21.8178 14.6119 21.7875C15.4738 21.5582 16.3014 21.2152 17.0728 20.7675C17.1738 20.7089 17.2596 20.6275 17.3236 20.5299C17.3876 20.4322 17.4278 20.321 17.4412 20.205L17.6887 17.9813C17.7862 17.8888 17.88 17.795 17.97 17.7L20.1994 17.4375C20.3154 17.424 20.4267 17.3836 20.5244 17.3195C20.622 17.2553 20.7034 17.1693 20.7619 17.0681C21.2087 16.2964 21.5514 15.4689 21.7809 14.6072C21.8111 14.4936 21.8142 14.3746 21.79 14.2596C21.7657 14.1447 21.7148 14.037 21.6412 13.9453L20.25 12.2025ZM18.7406 11.5931C18.7566 11.8642 18.7566 12.1359 18.7406 12.4069C18.7295 12.5924 18.7876 12.7755 18.9037 12.9206L20.2341 14.5828C20.0814 15.068 19.886 15.5386 19.65 15.9891L17.5312 16.2291C17.3467 16.2496 17.1764 16.3377 17.0531 16.4766C16.8727 16.6795 16.6805 16.8717 16.4775 17.0522C16.3387 17.1755 16.2505 17.3458 16.23 17.5303L15.9947 19.6472C15.5442 19.8833 15.0736 20.0787 14.5884 20.2313L12.9253 18.901C12.7922 18.7946 12.6269 18.7368 12.4566 18.7369H12.4116C12.1405 18.7528 11.8688 18.7528 11.5978 18.7369C11.4123 18.7257 11.2292 18.7839 11.0841 18.9L9.41718 20.2313C8.93206 20.0786 8.46146 19.8832 8.01093 19.6472L7.77094 17.5313C7.75045 17.3467 7.66227 17.1764 7.52344 17.0531C7.32047 16.8727 7.12827 16.6805 6.94781 16.4775C6.82456 16.3387 6.6542 16.2505 6.46969 16.23L4.35281 15.9938C4.11674 15.5433 3.92128 15.0727 3.76875 14.5875L5.09906 12.9244C5.21522 12.7793 5.27335 12.5962 5.26219 12.4106C5.24625 12.1396 5.24625 11.8679 5.26219 11.5969C5.27335 11.4113 5.21522 11.2283 5.09906 11.0831L3.76875 9.4172C3.9214 8.93208 4.11685 8.46147 4.35281 8.01095L6.46875 7.77095C6.65326 7.75047 6.82362 7.66228 6.94687 7.52345C7.12733 7.32049 7.31954 7.12828 7.5225 6.94783C7.66188 6.82449 7.75043 6.65374 7.77094 6.46876L8.00625 4.35282C8.45672 4.11675 8.92733 3.92129 9.4125 3.76876L11.0756 5.09907C11.2207 5.21524 11.4038 5.27337 11.5894 5.2622C11.8604 5.24626 12.1321 5.24626 12.4031 5.2622C12.5887 5.27337 12.7718 5.21524 12.9169 5.09907L14.5828 3.76876C15.0679 3.92141 15.5385 4.11687 15.9891 4.35282L16.2291 6.46876C16.2495 6.65328 16.3377 6.82364 16.4766 6.94689C16.6795 7.12735 16.8717 7.31955 17.0522 7.52251C17.1754 7.66134 17.3458 7.74953 17.5303 7.77001L19.6472 8.00533C19.8833 8.4558 20.0787 8.92641 20.2312 9.41158L18.9009 11.0747C18.7837 11.221 18.7255 11.406 18.7378 11.5931H18.7406Z" fill="#999999"/>
</svg>
