<svg width="24" height="24" viewBox="0 0 24 24" fill="none" xmlns="http://www.w3.org/2000/svg">
<path d="M8.93164 2.54784C6.90982 3.24923 5.1662 4.58049 3.9569 6.34607C2.7476 8.11166 2.13636 10.2185 2.21296 12.3572C2.28955 14.4958 3.04995 16.5535 4.38245 18.2281C5.71496 19.9026 7.54934 21.1057 9.61616 21.6607C11.2918 22.0931 13.0473 22.1121 14.7319 21.716C16.2579 21.3732 17.6688 20.64 18.8264 19.5882C20.0311 18.46 20.9056 17.0247 21.3558 15.4368C21.8451 13.7099 21.9322 11.8939 21.6103 10.1282H12.2009V14.0314H17.6502C17.5413 14.6539 17.3079 15.2481 16.964 15.7783C16.6201 16.3085 16.1728 16.7639 15.6488 17.1172C14.9834 17.5574 14.2333 17.8536 13.4466 17.9867C12.6577 18.1334 11.8485 18.1334 11.0595 17.9867C10.2599 17.8214 9.50344 17.4914 8.83836 17.0177C7.76992 16.2613 6.96767 15.1869 6.54609 13.9476C6.11737 12.6851 6.11737 11.3164 6.54609 10.0539C6.84618 9.16892 7.34227 8.36317 7.99733 7.69677C8.74698 6.92016 9.69604 6.36503 10.7404 6.0923C11.7848 5.81956 12.8841 5.83976 13.9177 6.15067C14.7252 6.39854 15.4636 6.83162 16.0741 7.41538C16.6885 6.8041 17.3019 6.19125 17.9142 5.57681C18.2304 5.24641 18.575 4.93181 18.8864 4.5935C17.9546 3.72635 16.8608 3.0516 15.6678 2.60792C13.4952 1.81904 11.118 1.79784 8.93164 2.54784Z" fill="white"/>
<path d="M8.93188 2.54785C11.118 1.79733 13.4952 1.81798 15.668 2.60634C16.8613 3.05304 17.9546 3.73104 18.8851 4.60141C18.5689 4.93972 18.2354 5.2559 17.9129 5.58472C17.2995 6.19705 16.6866 6.80727 16.0743 7.41538C15.4638 6.83162 14.7254 6.39855 13.918 6.15068C12.8847 5.83868 11.7854 5.81731 10.7408 6.08893C9.69611 6.36055 8.74646 6.91466 7.99599 7.69046C7.34093 8.35685 6.84484 9.1626 6.54475 10.0476L3.26758 7.51023C4.44061 5.18406 6.47163 3.40472 8.93188 2.54785Z" fill="#E33629"/>
<path d="M2.39817 10.0238C2.57432 9.15085 2.86675 8.30545 3.26766 7.51022L6.54483 10.0539C6.11611 11.3164 6.11611 12.6851 6.54483 13.9476C5.45296 14.7907 4.36057 15.6381 3.26766 16.4896C2.26404 14.4919 1.95795 12.2157 2.39817 10.0238Z" fill="#F8BD00"/>
<path d="M12.2009 10.1266H21.6103C21.9322 11.8923 21.8451 13.7083 21.3558 15.4352C20.9056 17.0231 20.0311 18.4584 18.8264 19.5866C17.7688 18.7614 16.7064 17.9425 15.6488 17.1172C16.1731 16.7636 16.6207 16.3077 16.9646 15.7769C17.3085 15.2461 17.5417 14.6513 17.6502 14.0282H12.2009C12.1993 12.7287 12.2009 11.4277 12.2009 10.1266Z" fill="#587DBD"/>
<path d="M3.26562 16.4896C4.35854 15.6465 5.45093 14.7991 6.54279 13.9476C6.96522 15.1873 7.76862 16.2618 8.83823 17.0176C9.50538 17.4892 10.2634 17.8165 11.0641 17.9788C11.8531 18.1255 12.6623 18.1255 13.4512 17.9788C14.2379 17.8457 14.988 17.5495 15.6534 17.1093C16.711 17.9346 17.7734 18.7535 18.831 19.5787C17.6736 20.6311 16.2627 21.3649 14.7365 21.7081C13.0519 22.1041 11.2964 22.0852 9.62077 21.6528C8.29552 21.2989 7.05765 20.6752 5.98474 19.8205C4.84913 18.9189 3.92162 17.7827 3.26562 16.4896Z" fill="#319F43"/>
</svg>
