<svg width="12" height="12" viewBox="0 0 12 12" fill="none" xmlns="http://www.w3.org/2000/svg">
<path d="M12 0.5V3C12 3.13261 11.9473 3.25979 11.8536 3.35355C11.7598 3.44732 11.6326 3.5 11.5 3.5C11.3674 3.5 11.2402 3.44732 11.1464 3.35355C11.0527 3.25979 11 3.13261 11 3V1H9C8.86739 1 8.74021 0.947321 8.64645 0.853553C8.55268 0.759785 8.5 0.632608 8.5 0.5C8.5 0.367392 8.55268 0.240215 8.64645 0.146447C8.74021 0.0526785 8.86739 0 9 0H11.5C11.6326 0 11.7598 0.0526785 11.8536 0.146447C11.9473 0.240215 12 0.367392 12 0.5ZM3 11H1V9C1 8.86739 0.947321 8.74021 0.853553 8.64645C0.759785 8.55268 0.632608 8.5 0.5 8.5C0.367392 8.5 0.240215 8.55268 0.146447 8.64645C0.0526785 8.74021 0 8.86739 0 9V11.5C0 11.6326 0.0526785 11.7598 0.146447 11.8536C0.240215 11.9473 0.367392 12 0.5 12H3C3.13261 12 3.25979 11.9473 3.35355 11.8536C3.44732 11.7598 3.5 11.6326 3.5 11.5C3.5 11.3674 3.44732 11.2402 3.35355 11.1464C3.25979 11.0527 3.13261 11 3 11ZM11.5 8.5C11.3674 8.5 11.2402 8.55268 11.1464 8.64645C11.0527 8.74021 11 8.86739 11 9V11H9C8.86739 11 8.74021 11.0527 8.64645 11.1464C8.55268 11.2402 8.5 11.3674 8.5 11.5C8.5 11.6326 8.55268 11.7598 8.64645 11.8536C8.74021 11.9473 8.86739 12 9 12H11.5C11.6326 12 11.7598 11.9473 11.8536 11.8536C11.9473 11.7598 12 11.6326 12 11.5V9C12 8.86739 11.9473 8.74021 11.8536 8.64645C11.7598 8.55268 11.6326 8.5 11.5 8.5ZM0.5 3.5C0.632608 3.5 0.759785 3.44732 0.853553 3.35355C0.947321 3.25979 1 3.13261 1 3V1H3C3.13261 1 3.25979 0.947321 3.35355 0.853553C3.44732 0.759785 3.5 0.632608 3.5 0.5C3.5 0.367392 3.44732 0.240215 3.35355 0.146447C3.25979 0.0526785 3.13261 0 3 0H0.5C0.367392 0 0.240215 0.0526785 0.146447 0.146447C0.0526785 0.240215 0 0.367392 0 0.5V3C0 3.13261 0.0526785 3.25979 0.146447 3.35355C0.240215 3.44732 0.367392 3.5 0.5 3.5ZM3 2.5H9C9.13261 2.5 9.25979 2.55268 9.35355 2.64645C9.44732 2.74021 9.5 2.86739 9.5 3V9C9.5 9.13261 9.44732 9.25979 9.35355 9.35355C9.25979 9.44732 9.13261 9.5 9 9.5H3C2.86739 9.5 2.74021 9.44732 2.64645 9.35355C2.55268 9.25979 2.5 9.13261 2.5 9V3C2.5 2.86739 2.55268 2.74021 2.64645 2.64645C2.74021 2.55268 2.86739 2.5 3 2.5ZM3.5 8.5H8.5V3.5H3.5V8.5Z" fill="#999999"/>
</svg>
