<svg width="20" height="22" viewBox="0 0 20 22" fill="none" xmlns="http://www.w3.org/2000/svg">
<path d="M19.5 10.9897C19.5007 11.2569 19.4299 11.5195 19.2951 11.7502C19.1603 11.981 18.9663 12.1715 18.7331 12.3022L2.99061 21.3031C2.76471 21.4311 2.50966 21.4989 2.24999 21.5C2.01073 21.4987 1.77525 21.4402 1.5632 21.3293C1.35116 21.2185 1.16871 21.0586 1.03107 20.8628C0.893442 20.6671 0.804623 20.4413 0.772034 20.2043C0.739445 19.9673 0.76403 19.7259 0.843738 19.5003L3.37499 12.005C3.39973 11.9317 3.44652 11.8679 3.50895 11.8222C3.57138 11.7766 3.64641 11.7513 3.72374 11.75H10.5C10.6028 11.7502 10.7046 11.7293 10.799 11.6885C10.8934 11.6478 10.9784 11.588 11.0487 11.513C11.119 11.438 11.1732 11.3494 11.2078 11.2526C11.2424 11.1558 11.2568 11.0529 11.25 10.9503C11.233 10.7574 11.1437 10.5781 11.0002 10.4482C10.8566 10.3184 10.6692 10.2476 10.4756 10.25H3.72561C3.64716 10.25 3.57067 10.2254 3.50693 10.1796C3.44319 10.1339 3.39541 10.0693 3.3703 9.99497L0.839051 2.5006C0.738302 2.21334 0.727337 1.90223 0.807613 1.60859C0.887889 1.31495 1.05561 1.05269 1.28848 0.856642C1.52136 0.660594 1.80837 0.540039 2.1114 0.510995C2.41442 0.48195 2.71911 0.54579 2.98499 0.694033L18.735 9.68372C18.9668 9.81404 19.1598 10.0036 19.2943 10.2331C19.4287 10.4626 19.4997 10.7237 19.5 10.9897Z" fill="white"/>
</svg>
