<svg width="18" height="15" viewBox="0 0 18 15" fill="none" xmlns="http://www.w3.org/2000/svg">
<path d="M15.25 2.375H13.0844L12.0195 0.778125C11.9625 0.692618 11.8852 0.622502 11.7946 0.573989C11.704 0.525475 11.6028 0.500062 11.5 0.5H6.5C6.39721 0.500062 6.29602 0.525475 6.2054 0.573989C6.11478 0.622502 6.03752 0.692618 5.98047 0.778125L4.91484 2.375H2.75C2.25272 2.375 1.77581 2.57254 1.42417 2.92417C1.07254 3.27581 0.875 3.75272 0.875 4.25V13C0.875 13.4973 1.07254 13.9742 1.42417 14.3258C1.77581 14.6775 2.25272 14.875 2.75 14.875H15.25C15.7473 14.875 16.2242 14.6775 16.5758 14.3258C16.9275 13.9742 17.125 13.4973 17.125 13V4.25C17.125 3.75272 16.9275 3.27581 16.5758 2.92417C16.2242 2.57254 15.7473 2.375 15.25 2.375ZM15.875 13C15.875 13.1658 15.8092 13.3247 15.6919 13.4419C15.5747 13.5592 15.4158 13.625 15.25 13.625H2.75C2.58424 13.625 2.42527 13.5592 2.30806 13.4419C2.19085 13.3247 2.125 13.1658 2.125 13V4.25C2.125 4.08424 2.19085 3.92527 2.30806 3.80806C2.42527 3.69085 2.58424 3.625 2.75 3.625H5.25C5.35292 3.62507 5.45427 3.59971 5.54504 3.5512C5.63581 3.50268 5.71319 3.43249 5.77031 3.34688L6.83437 1.75H11.1648L12.2297 3.34688C12.2868 3.43249 12.3642 3.50268 12.455 3.5512C12.5457 3.59971 12.6471 3.62507 12.75 3.625H15.25C15.4158 3.625 15.5747 3.69085 15.6919 3.80806C15.8092 3.92527 15.875 4.08424 15.875 4.25V13ZM9 4.875C8.32013 4.875 7.65552 5.07661 7.09023 5.45432C6.52493 5.83204 6.08434 6.3689 5.82416 6.99703C5.56399 7.62515 5.49591 8.31631 5.62855 8.98312C5.76119 9.64993 6.08858 10.2624 6.56932 10.7432C7.05006 11.2239 7.66257 11.5513 8.32938 11.6839C8.99619 11.8166 9.68735 11.7485 10.3155 11.4883C10.9436 11.2282 11.4805 10.7876 11.8582 10.2223C12.2359 9.65698 12.4375 8.99237 12.4375 8.3125C12.4365 7.40114 12.074 6.52739 11.4295 5.88296C10.7851 5.23853 9.91136 4.87603 9 4.875ZM9 10.5C8.56735 10.5 8.14442 10.3717 7.78469 10.1313C7.42496 9.89097 7.14458 9.54933 6.97901 9.14962C6.81345 8.74991 6.77013 8.31007 6.85453 7.88574C6.93894 7.46141 7.14728 7.07163 7.4532 6.7657C7.75913 6.45978 8.14891 6.25144 8.57324 6.16703C8.99757 6.08263 9.43741 6.12595 9.83712 6.29151C10.2368 6.45708 10.5785 6.73746 10.8188 7.09719C11.0592 7.45692 11.1875 7.87985 11.1875 8.3125C11.1875 8.89266 10.957 9.44906 10.5468 9.8593C10.1366 10.2695 9.58016 10.5 9 10.5Z" fill="#B36370"/>
</svg>
