<svg width="20" height="20" viewBox="0 0 20 20" fill="none" xmlns="http://www.w3.org/2000/svg">
<rect x="0.5" y="0.5" width="19" height="19" rx="9.5" fill="#B36370"/>
<rect x="0.5" y="0.5" width="19" height="19" rx="9.5" stroke="#B36370"/>
<path d="M15.5595 7.24703L8.55953 14.247C8.5189 14.2877 8.47065 14.32 8.41754 14.342C8.36442 14.364 8.30749 14.3753 8.25 14.3753C8.1925 14.3753 8.13557 14.364 8.08246 14.342C8.02935 14.32 7.9811 14.2877 7.94047 14.247L4.87797 11.1845C4.79588 11.1024 4.74976 10.9911 4.74976 10.875C4.74976 10.7589 4.79588 10.6476 4.87797 10.5655C4.96006 10.4834 5.0714 10.4373 5.1875 10.4373C5.3036 10.4373 5.41494 10.4834 5.49703 10.5655L8.25 13.319L14.9405 6.62797C15.0226 6.54587 15.1339 6.49976 15.25 6.49976C15.3661 6.49976 15.4774 6.54587 15.5595 6.62797C15.6416 6.71006 15.6877 6.8214 15.6877 6.9375C15.6877 7.0536 15.6416 7.16494 15.5595 7.24703Z" fill="white"/>
</svg>
