<svg width="18" height="22" viewBox="0 0 18 22" fill="none" xmlns="http://www.w3.org/2000/svg">
<path d="M16.5 3.5C15.3586 3.49897 14.2295 3.73622 13.185 4.19657C11.7694 1.81813 9.4425 0.634066 9.33562 0.578753C9.23143 0.526613 9.11652 0.499466 9 0.499466C8.88348 0.499466 8.76857 0.526613 8.66437 0.578753C8.5575 0.633128 6.22688 1.81813 4.815 4.19657C3.77051 3.73622 2.64143 3.49897 1.5 3.5C1.30109 3.5 1.11032 3.57902 0.96967 3.71967C0.829018 3.86033 0.75 4.05109 0.75 4.25V8C0.752475 10.0574 1.52267 12.0399 2.90984 13.5594C4.29701 15.0788 6.2013 16.0259 8.25 16.2153V19.5369L4.83563 17.8288C4.74748 17.7847 4.65151 17.7584 4.5532 17.7514C4.45489 17.7444 4.35617 17.7569 4.26268 17.788C4.16918 17.8192 4.08274 17.8685 4.00828 17.933C3.93383 17.9976 3.87282 18.0762 3.82875 18.1644C3.78467 18.2525 3.75839 18.3485 3.75141 18.4468C3.74442 18.5451 3.75687 18.6438 3.78803 18.7373C3.8192 18.8308 3.86847 18.9173 3.93305 18.9917C3.99762 19.0662 4.07623 19.1272 4.16437 19.1713L8.66437 21.4213C8.76857 21.4734 8.88348 21.5005 9 21.5005C9.11652 21.5005 9.23143 21.4734 9.33562 21.4213L13.8356 19.1713C14.0137 19.0822 14.149 18.9261 14.212 18.7373C14.2749 18.5485 14.2603 18.3424 14.1713 18.1644C14.0822 17.9863 13.9261 17.851 13.7373 17.788C13.5485 17.7251 13.3424 17.7397 13.1644 17.8288L9.75 19.5369V16.2153C11.7987 16.0259 13.703 15.0788 15.0902 13.5594C16.4773 12.0399 17.2475 10.0574 17.25 8V4.25C17.25 4.05109 17.171 3.86033 17.0303 3.71967C16.8897 3.57902 16.6989 3.5 16.5 3.5ZM8.25 14.7088C6.60065 14.5223 5.07757 13.7354 3.97105 12.4982C2.86452 11.261 2.25192 9.65986 2.25 8V5.04125C3.89935 5.22773 5.42243 6.01456 6.52895 7.25179C7.63548 8.48902 8.24808 10.0901 8.25 11.75V14.7088ZM9 8.315C8.36907 6.94426 7.37585 5.77179 6.1275 4.92407C7.02469 3.44375 8.3775 2.49594 9 2.11157C9.62344 2.49407 10.9762 3.44188 11.8725 4.92407C10.6243 5.772 9.63118 6.94441 9 8.315ZM15.75 8C15.7481 9.65986 15.1355 11.261 14.029 12.4982C12.9224 13.7354 11.3994 14.5223 9.75 14.7088V11.75C9.75192 10.0901 10.3645 8.48902 11.471 7.25179C12.5776 6.01456 14.1006 5.22773 15.75 5.04125V8Z" fill="#DD5380"/>
</svg>
