<svg width="17" height="14" viewBox="0 0 17 14" fill="none" xmlns="http://www.w3.org/2000/svg">
<path d="M15.375 0.125H4.125C3.79348 0.125 3.47554 0.256696 3.24112 0.491116C3.0067 0.725537 2.875 1.04348 2.875 1.375V2.625H1.625C1.29348 2.625 0.975537 2.7567 0.741116 2.99112C0.506696 3.22554 0.375 3.54348 0.375 3.875V12.625C0.375 12.9565 0.506696 13.2745 0.741116 13.5089C0.975537 13.7433 1.29348 13.875 1.625 13.875H12.875C13.2065 13.875 13.5245 13.7433 13.7589 13.5089C13.9933 13.2745 14.125 12.9565 14.125 12.625V11.375H15.375C15.7065 11.375 16.0245 11.2433 16.2589 11.0089C16.4933 10.7745 16.625 10.4565 16.625 10.125V1.375C16.625 1.04348 16.4933 0.725537 16.2589 0.491116C16.0245 0.256696 15.7065 0.125 15.375 0.125ZM4.125 1.375H15.375V6.27734L14.5883 5.49141C14.4722 5.3753 14.3344 5.2832 14.1827 5.22037C14.031 5.15753 13.8685 5.12519 13.7043 5.12519C13.5401 5.12519 13.3776 5.15753 13.2259 5.22037C13.0742 5.2832 12.9364 5.3753 12.8203 5.49141L11.2578 7.05391L7.82031 3.61641C7.58592 3.38216 7.2681 3.25058 6.93672 3.25058C6.60534 3.25058 6.28752 3.38216 6.05312 3.61641L4.125 5.54453V1.375ZM12.875 12.625H1.625V3.875H2.875V10.125C2.875 10.4565 3.0067 10.7745 3.24112 11.0089C3.47554 11.2433 3.79348 11.375 4.125 11.375H12.875V12.625ZM15.375 10.125H4.125V7.3125L6.9375 4.5L10.8172 8.37969C10.9344 8.49681 11.0933 8.5626 11.259 8.5626C11.4247 8.5626 11.5836 8.49681 11.7008 8.37969L13.7055 6.375L15.375 8.04531V10.125ZM11 3.5625C11 3.37708 11.055 3.19582 11.158 3.04165C11.261 2.88748 11.4074 2.76732 11.5787 2.69636C11.75 2.62541 11.9385 2.60684 12.1204 2.64301C12.3023 2.67919 12.4693 2.76848 12.6004 2.89959C12.7315 3.0307 12.8208 3.19775 12.857 3.3796C12.8932 3.56146 12.8746 3.74996 12.8036 3.92127C12.7327 4.09257 12.6125 4.23899 12.4583 4.342C12.3042 4.44502 12.1229 4.5 11.9375 4.5C11.6889 4.5 11.4504 4.40123 11.2746 4.22541C11.0988 4.0496 11 3.81114 11 3.5625Z" fill="#B36370"/>
</svg>
