<svg width="20" height="20" viewBox="0 0 20 20" fill="none" xmlns="http://www.w3.org/2000/svg">
<path d="M7.375 8.91531C7.48904 8.84947 7.58373 8.75477 7.64956 8.64072C7.71539 8.52667 7.75003 8.39731 7.75 8.26562V1.51562C7.74933 1.39605 7.72008 1.27837 7.66469 1.1724C7.6093 1.06643 7.52937 0.975234 7.43158 0.906428C7.33378 0.837622 7.22095 0.793197 7.10249 0.776858C6.98404 0.760519 6.8634 0.772739 6.75063 0.8125C4.56154 1.58726 2.72061 3.11748 1.55877 5.12807C0.396922 7.13865 -0.00963289 9.49774 0.412187 11.7812C0.434052 11.8993 0.483953 12.0104 0.557693 12.1052C0.631433 12.2 0.726857 12.2757 0.835938 12.3259C0.934239 12.3719 1.04148 12.3956 1.15 12.3953C1.28164 12.3954 1.41097 12.3608 1.525 12.295L7.375 8.91531ZM6.25 2.65188V7.8325L1.76125 10.4228C1.75 10.2812 1.75 10.1388 1.75 10C1.75133 8.47971 2.17215 6.98928 2.96612 5.69279C3.76009 4.3963 4.89642 3.34404 6.25 2.65188ZM10 0.25C9.80109 0.25 9.61032 0.329018 9.46967 0.46967C9.32902 0.610322 9.25 0.801088 9.25 1V9.60812L1.86156 13.9122C1.77583 13.9619 1.70079 14.0281 1.64079 14.107C1.58079 14.1858 1.53701 14.2758 1.51199 14.3717C1.48697 14.4676 1.48121 14.5675 1.49502 14.6656C1.50884 14.7638 1.54197 14.8582 1.5925 14.9434C2.45847 16.4156 3.69598 17.6344 5.18112 18.478C6.66626 19.3215 8.34692 19.7601 10.0549 19.7498C11.7628 19.7396 13.4381 19.2809 14.913 18.4196C16.3879 17.5583 17.6107 16.3247 18.4589 14.8422C19.3072 13.3598 19.7511 11.6805 19.7463 9.97257C19.7415 8.2646 19.2881 6.58787 18.4316 5.11022C17.575 3.63257 16.3453 2.40586 14.8655 1.55289C13.3858 0.699928 11.708 0.250637 10 0.25ZM10 18.25C8.69073 18.2465 7.40089 17.9331 6.236 17.3354C5.0711 16.7377 4.06425 15.8727 3.29781 14.8113L10.3778 10.6863C10.4917 10.6205 10.5863 10.5259 10.6521 10.4121C10.718 10.2982 10.7527 10.169 10.7528 10.0375V1.78375C12.8682 1.97567 14.8281 2.9761 16.2244 4.57675C17.6206 6.1774 18.3458 8.25493 18.2488 10.3768C18.1518 12.4987 17.2401 14.5013 15.7036 15.9679C14.167 17.4345 12.1241 18.2519 10 18.25Z" fill="#999999"/>
</svg>
