<svg width="355" height="386" viewBox="0 0 355 386" fill="none" xmlns="http://www.w3.org/2000/svg">
<path fill-rule="evenodd" clip-rule="evenodd" d="M183.205 13.8818C215.208 23.9207 254.008 53.1179 280 75C304.084 95.2759 318.013 107.406 329.747 137.252C341.708 167.674 331.124 202.421 319.098 232.815C307.791 261.396 300.594 283.739 280 306C254.034 334.068 219.243 369.191 183.205 379.707C161.014 386.183 136.946 387.806 114 383.899C94.9141 380.649 76.6047 373.573 60.798 362.28C25.6439 337.165 -0.377338 293.215 0.00414036 248.822C0.361569 207.228 51.3021 185.927 62.6561 146.047C74.573 104.19 36.7575 49.9709 65.63 18.3162C93.3158 -12.0374 144.712 1.80738 183.205 13.8818Z" fill="#B36370" fill-opacity="0.2"/>
<g clip-path="url(#clip0_2001_2968)">
<path d="M276.464 72.9039H115.014C111.277 72.9039 108.247 75.9336 108.247 79.6709V297.253C108.247 300.991 111.277 304.02 115.014 304.02H276.464C280.202 304.02 283.231 300.991 283.231 297.253V79.6709C283.231 75.9336 280.202 72.9039 276.464 72.9039Z" fill="#455A64"/>
<path d="M271.506 83.8249H119.959V288.141H271.506V83.8249Z" fill="#F5F5F5"/>
<path d="M271.513 288.141C271.513 286.748 271.446 204.8 271.352 83.7914L271.513 83.9455H119.979L120.153 83.7713C120.153 159.97 120.153 230.575 120.153 288.121L120.006 287.974L271.56 288.121L120.006 288.262H119.865V288.121C119.865 230.609 119.865 160.004 119.832 83.7713V83.5971H120.026H271.56H271.714V83.7579C271.58 204.78 271.513 286.748 271.513 288.141Z" fill="#263238"/>
<path d="M151.864 118.116L148.333 112.802H144.427V118.116H140.186V99.0473H148.119C149.576 99.0127 151.022 99.301 152.353 99.8915C153.487 100.397 154.447 101.224 155.114 102.27C155.783 103.378 156.121 104.654 156.085 105.948C156.126 107.249 155.784 108.533 155.1 109.64C154.427 110.681 153.459 111.497 152.32 111.985L156.434 118.116H151.864ZM150.792 103.503C149.959 102.875 148.926 102.57 147.885 102.645H144.427V109.292H147.885C148.928 109.364 149.963 109.051 150.792 108.414C151.433 107.757 151.791 106.876 151.791 105.958C151.791 105.041 151.433 104.16 150.792 103.503Z" fill="#B36370"/>
<path d="M161.144 131.294L156.95 125.05L152.829 131.321H148.213L154.645 122.136L148.534 113.258H153.104L157.124 119.114L161.03 113.231H165.372L159.342 121.941L165.82 131.281L161.144 131.294Z" fill="#B36370"/>
<path d="M218.885 103.603H192.875V110.042H218.885V103.603Z" fill="#E0E0E0"/>
<path d="M257.028 107.67C257.028 107.771 249.912 107.844 241.135 107.844C232.358 107.844 225.25 107.771 225.25 107.67C225.25 107.57 232.358 107.496 241.135 107.496C249.912 107.496 257.028 107.576 257.028 107.67Z" fill="#263238"/>
<path d="M256.431 115.395C256.431 115.489 242.201 115.57 224.653 115.57C207.106 115.57 192.875 115.489 192.875 115.395C192.875 115.301 207.099 115.214 224.653 115.214C242.207 115.214 256.431 115.295 256.431 115.395Z" fill="#263238"/>
<path d="M256.431 122.96C256.431 123.053 242.201 123.134 224.653 123.134C207.106 123.134 192.875 123.053 192.875 122.96C192.875 122.866 207.099 122.785 224.653 122.785C242.207 122.785 256.431 122.859 256.431 122.96Z" fill="#263238"/>
<path d="M266.347 143.14C266.347 143.234 234.73 143.314 195.743 143.314C156.756 143.314 125.132 143.234 125.132 143.14C125.132 143.046 156.735 142.959 195.743 142.959C234.75 142.959 266.347 143.026 266.347 143.14Z" fill="#263238"/>
<path d="M266.347 257.348C266.347 257.442 234.73 257.522 195.743 257.522C156.756 257.522 125.132 257.442 125.132 257.348C125.132 257.254 156.735 257.174 195.743 257.174C234.75 257.174 266.347 257.248 266.347 257.348Z" fill="#263238"/>
<path d="M180.333 154.684H136.763V162.858H180.333V154.684Z" fill="#E0E0E0"/>
<path d="M155.623 269.006H136.763V277.18H155.623V269.006Z" fill="#E0E0E0"/>
<path d="M218.952 269.006H200.091V277.18H218.952V269.006Z" fill="#E0E0E0"/>
<path d="M187.234 274.668C187.234 274.768 181.344 274.842 174.082 274.842C166.819 274.842 160.923 274.768 160.923 274.668C160.923 274.567 166.812 274.493 174.082 274.493C181.351 274.493 187.234 274.574 187.234 274.668Z" fill="#263238"/>
<path d="M254.957 274.668C254.957 274.768 249.068 274.842 241.805 274.842C234.542 274.842 228.646 274.768 228.646 274.668C228.646 274.567 234.536 274.493 241.805 274.493C249.075 274.493 254.957 274.574 254.957 274.668Z" fill="#263238"/>
<path d="M253.396 175.166C253.396 175.26 227.581 175.34 195.776 175.34C163.971 175.34 138.156 175.26 138.156 175.166C138.156 175.072 163.958 174.992 195.776 174.992C227.595 174.992 253.396 175.066 253.396 175.166Z" fill="#263238"/>
<path d="M255.634 184.492C255.634 184.593 229.323 184.667 196.875 184.667C164.427 184.667 138.109 184.593 138.109 184.492C138.109 184.392 164.413 184.318 196.875 184.318C229.336 184.318 255.634 184.399 255.634 184.492Z" fill="#263238"/>
<path d="M195.08 193.826C195.08 193.919 182.021 194 165.921 194C149.821 194 136.763 193.919 136.763 193.826C136.763 193.732 149.814 193.651 165.921 193.651C182.028 193.651 195.08 193.725 195.08 193.826Z" fill="#263238"/>
<path d="M254.77 227.661C254.77 227.661 254.643 227.714 254.381 227.795L253.242 228.143C251.77 228.581 250.274 228.93 248.76 229.188C247.667 229.381 246.56 229.486 245.45 229.503C244.123 229.529 242.798 229.364 241.517 229.014C240.042 228.592 238.683 227.838 237.544 226.81C236.26 225.637 235.416 224.06 235.152 222.341C235.015 221.412 235.128 220.464 235.481 219.594C235.876 218.689 236.522 217.917 237.343 217.369C237.767 217.075 238.246 216.869 238.751 216.762C239.256 216.655 239.777 216.65 240.284 216.746C240.798 216.872 241.281 217.1 241.705 217.416C242.119 217.762 242.464 218.183 242.723 218.656C243.216 219.636 243.462 220.721 243.44 221.818C243.445 222.94 243.24 224.054 242.837 225.101C241.963 227.269 240.521 229.162 238.663 230.582C236.717 232.094 234.406 233.065 231.963 233.396C230.711 233.574 229.438 233.559 228.191 233.349C227.557 233.247 226.933 233.097 226.322 232.9C225.711 232.675 225.116 232.411 224.539 232.109C223.39 231.468 222.366 230.624 221.518 229.617C220.641 228.589 220.027 227.364 219.729 226.046C219.402 224.692 219.57 223.266 220.205 222.026C220.834 220.771 221.878 219.772 223.159 219.198C223.808 218.905 224.52 218.78 225.23 218.837C225.933 218.907 226.605 219.161 227.179 219.574C228.269 220.437 229.02 221.656 229.303 223.017C229.611 224.321 229.684 225.668 229.518 226.997C229.387 228.299 229.096 229.579 228.653 230.81C227.831 233.238 226.379 235.404 224.446 237.087C222.566 238.7 220.216 239.661 217.746 239.828C215.464 240.06 213.173 239.472 211.285 238.17C209.397 236.867 208.034 234.935 207.441 232.719C206.835 230.741 206.915 228.616 207.669 226.689C208.023 225.77 208.632 224.97 209.424 224.384C209.82 224.095 210.28 223.904 210.764 223.828C211.241 223.758 211.727 223.85 212.144 224.089C212.527 224.338 212.847 224.672 213.079 225.065C213.312 225.458 213.45 225.899 213.484 226.354C213.596 227.187 213.562 228.032 213.384 228.853C213.119 230.35 212.669 231.809 212.044 233.195C211.502 234.398 210.828 235.538 210.034 236.592C209.37 237.485 208.621 238.31 207.796 239.057C206.672 240.106 205.404 240.991 204.031 241.684C203.679 241.871 203.316 242.039 202.945 242.186L202.563 242.334L202.932 242.153C203.173 242.032 203.548 241.885 204.004 241.623C205.354 240.9 206.6 239.999 207.709 238.943C209.468 237.285 210.888 235.301 211.89 233.101C212.515 231.731 212.966 230.288 213.23 228.806C213.393 228.006 213.423 227.184 213.317 226.374C213.284 225.957 213.158 225.553 212.947 225.192C212.735 224.831 212.445 224.523 212.098 224.29C211.726 224.078 211.294 223.998 210.871 224.063C210.436 224.14 210.025 224.319 209.672 224.585C208.921 225.142 208.344 225.902 208.011 226.776C207.285 228.65 207.216 230.714 207.816 232.632C208.399 234.776 209.723 236.644 211.554 237.903C213.384 239.162 215.602 239.73 217.813 239.506C220.208 239.333 222.485 238.394 224.305 236.826C226.192 235.181 227.608 233.062 228.405 230.689C228.836 229.481 229.12 228.226 229.25 226.95C229.409 225.661 229.337 224.354 229.035 223.091C228.77 221.808 228.057 220.661 227.025 219.855C226.498 219.475 225.879 219.244 225.233 219.184C224.586 219.124 223.935 219.237 223.347 219.513C222.137 220.059 221.152 221.006 220.56 222.193C219.965 223.357 219.808 224.696 220.117 225.965C220.441 227.208 221.021 228.37 221.819 229.376C222.617 230.382 223.617 231.21 224.754 231.808C225.311 232.098 225.887 232.353 226.476 232.572C228.244 233.148 230.121 233.315 231.963 233.061C233.159 232.894 234.328 232.572 235.44 232.103C236.527 231.639 237.552 231.04 238.489 230.32C240.306 228.933 241.715 227.081 242.569 224.96C242.961 223.95 243.164 222.875 243.165 221.791C243.189 220.745 242.959 219.708 242.495 218.77C242.253 218.331 241.936 217.939 241.557 217.611C241.172 217.301 240.727 217.073 240.251 216.941C239.78 216.85 239.296 216.855 238.826 216.954C238.357 217.053 237.912 217.244 237.517 217.517C236.737 218.03 236.123 218.758 235.749 219.614C235.408 220.442 235.295 221.347 235.42 222.234C235.675 223.898 236.487 225.427 237.725 226.568C238.836 227.58 240.163 228.324 241.604 228.746C242.864 229.1 244.168 229.272 245.477 229.255C246.579 229.248 247.679 229.154 248.767 228.974C250.277 228.726 251.773 228.4 253.249 227.996L254.401 227.681L254.77 227.661Z" fill="#263238"/>
<path d="M221.022 70.9408H170.45V90.277H221.022V70.9408Z" fill="#E0E0E0"/>
<path d="M221.022 90.2703C221.022 90.2703 221.022 90.1497 221.022 89.9219C221.022 89.6941 221.022 89.3524 221.022 88.9169C221.022 88.0258 221.022 86.7394 221.022 85.0778C221.022 81.7278 220.981 76.9239 220.955 70.9408L221.075 71.0614L170.51 71.115L170.685 70.9408C170.685 77.6944 170.685 84.2269 170.685 90.2703L170.517 90.1028L206.697 90.1832L217.236 90.2301H220.07H220.807H221.062C220.984 90.2368 220.905 90.2368 220.827 90.2301H220.11H217.317L206.811 90.277L170.49 90.3507H170.323V90.1832C170.323 84.1532 170.323 77.6073 170.323 70.8537L170.497 70.6795L221.062 70.7331H221.182V70.8537C221.182 76.8837 221.136 81.7077 221.115 85.0644C221.115 86.7126 221.115 87.9923 221.115 88.8767C221.115 89.2988 221.115 89.6271 221.115 89.8616C221.115 90.0961 221.022 90.2703 221.022 90.2703Z" fill="#263238"/>
<path d="M129.598 356.939L125.155 372.718C125.155 372.718 139.313 382.647 138.77 385.642L108.62 377.89L114.563 353.02L129.598 356.939Z" fill="#455A64"/>
<path d="M116.151 368.986C115.835 369.007 115.538 369.144 115.317 369.37C115.096 369.596 114.966 369.896 114.951 370.212C114.953 370.528 115.075 370.832 115.293 371.061C115.511 371.29 115.808 371.428 116.124 371.445C116.46 371.426 116.776 371.282 117.011 371.042C117.245 370.801 117.381 370.481 117.39 370.145C117.33 369.508 116.64 368.845 116.05 368.999" fill="#E0E0E0"/>
<g opacity="0.6">
<path d="M108.62 377.89L109.29 375.411L137.952 383.752C137.952 383.752 139.152 384.69 138.763 385.622L108.62 377.89Z" fill="white"/>
</g>
<path d="M125.685 372.684C125.638 372.838 124.888 372.684 124.043 373.012C123.199 373.341 122.657 373.85 122.536 373.756C122.415 373.662 122.851 372.845 123.876 372.503C124.901 372.161 125.745 372.53 125.685 372.684Z" fill="#263238"/>
<path d="M128.519 374.835C128.519 374.996 127.849 375.083 127.179 375.599C126.509 376.115 126.214 376.744 126.067 376.697C125.919 376.651 126.067 375.78 126.864 375.163C127.661 374.547 128.553 374.694 128.519 374.835Z" fill="#263238"/>
<path d="M129.39 379.176C129.249 379.176 129.229 378.372 129.805 377.642C130.382 376.912 131.145 376.758 131.186 376.898C131.226 377.039 130.683 377.374 130.214 377.984C129.745 378.594 129.517 379.23 129.39 379.176Z" fill="#263238"/>
<path d="M126.308 368.979C126.208 369.1 125.585 368.718 124.74 368.564C123.896 368.409 123.179 368.51 123.132 368.356C123.086 368.202 123.843 367.833 124.834 368.028C125.826 368.222 126.409 368.878 126.308 368.979Z" fill="#263238"/>
<path d="M119.025 360.658L118.355 377.059C118.355 377.059 134.435 383.297 134.556 386.345L103.461 386.098L103.528 360.49L119.025 360.658Z" fill="#455A64"/>
<path d="M108.721 375.605C108.418 375.7 108.16 375.902 107.996 376.174C107.832 376.445 107.773 376.767 107.829 377.079C107.9 377.387 108.088 377.655 108.353 377.827C108.619 377.998 108.94 378.059 109.25 377.997C109.571 377.896 109.844 377.681 110.017 377.392C110.19 377.103 110.251 376.76 110.188 376.429C110.081 376.12 109.857 375.864 109.564 375.718C109.271 375.571 108.932 375.545 108.62 375.645" fill="#E0E0E0"/>
<g opacity="0.6">
<path d="M103.428 386.098L103.535 383.518L133.31 384.717C133.31 384.717 134.69 385.347 134.522 386.345L103.428 386.098Z" fill="white"/>
</g>
<path d="M118.831 376.905C118.831 377.059 118.067 377.126 117.31 377.615C116.553 378.104 116.157 378.761 116.017 378.701C115.876 378.64 116.111 377.743 117.035 377.16C117.96 376.577 118.864 376.758 118.831 376.905Z" fill="#263238"/>
<path d="M122.08 378.312C122.08 378.459 121.457 378.721 120.935 379.377C120.412 380.034 120.265 380.717 120.111 380.717C119.957 380.717 119.869 379.826 120.533 379.029C121.196 378.232 122.08 378.165 122.08 378.312Z" fill="#263238"/>
<path d="M123.903 382.325C123.762 382.359 123.561 381.582 123.957 380.731C124.352 379.88 125.062 379.545 125.129 379.679C125.196 379.813 124.747 380.262 124.459 380.959C124.171 381.655 124.03 382.312 123.903 382.325Z" fill="#263238"/>
<path d="M118.583 373.146C118.523 373.287 117.826 373.066 116.968 373.146C116.111 373.227 115.434 373.475 115.36 373.341C115.287 373.207 115.93 372.671 116.942 372.604C117.953 372.537 118.67 373.026 118.583 373.146Z" fill="#263238"/>
<path d="M99.7894 240.614V253.585L103.186 304.116C103.186 304.116 101.069 328.632 99.7693 342.474C98.6437 354.487 100.486 375.418 100.486 375.418H120.278L127.38 305.624L131.775 262.074L139.44 242.282L99.7894 240.614Z" fill="#263238"/>
<path d="M151.909 242.872L148.117 313.376L128.097 366.165L127.173 369.341L115.354 366.413L124.144 241.498L151.909 242.872Z" fill="#263238"/>
<path d="M131.708 262.61C131.716 262.708 131.716 262.806 131.708 262.905C131.708 263.119 131.708 263.4 131.708 263.762C131.708 264.539 131.655 265.652 131.608 267.072C131.527 269.94 131.326 274.087 131.045 279.212C130.449 289.463 129.337 303.607 127.595 319.178C125.853 334.749 123.997 348.805 122.616 358.976C121.946 364.041 121.35 368.148 120.955 371.036C120.754 372.443 120.593 373.542 120.486 374.305C120.426 374.667 120.385 374.976 120.352 375.156C120.341 375.254 120.32 375.351 120.292 375.444V375.15C120.292 374.942 120.352 374.661 120.392 374.299C120.486 373.528 120.62 372.429 120.794 371.016C121.156 368.155 121.685 364.041 122.342 358.956C123.682 348.778 125.497 334.722 127.213 319.151C128.928 303.58 130.1 289.463 130.764 279.219C131.079 274.1 131.32 269.953 131.434 267.085C131.507 265.665 131.561 264.559 131.601 263.782C131.601 263.42 131.641 263.112 131.655 262.925C131.661 262.818 131.679 262.712 131.708 262.61Z" fill="#455A64"/>
<path d="M132.961 244.975C132.956 245.176 132.892 245.37 132.777 245.534C132.661 245.698 132.501 245.824 132.314 245.897C132.128 245.97 131.924 245.986 131.728 245.944C131.532 245.902 131.353 245.803 131.214 245.659C131.074 245.516 130.979 245.334 130.942 245.138C130.905 244.941 130.927 244.737 131.005 244.553C131.082 244.368 131.213 244.211 131.38 244.1C131.547 243.989 131.742 243.93 131.943 243.93C132.078 243.931 132.213 243.959 132.338 244.012C132.462 244.065 132.576 244.143 132.67 244.24C132.765 244.337 132.84 244.452 132.889 244.578C132.939 244.705 132.964 244.84 132.961 244.975Z" fill="#455A64"/>
<path d="M150.361 254.824C149.834 254.447 149.365 253.996 148.967 253.484C147.944 252.274 147.104 250.919 146.475 249.464C145.842 248.011 145.422 246.475 145.229 244.902C145.117 244.255 145.101 243.596 145.182 242.945C145.242 242.945 145.282 243.689 145.483 244.868C145.754 246.396 146.203 247.887 146.823 249.31C147.446 250.723 148.236 252.057 149.175 253.283C149.885 254.248 150.401 254.778 150.361 254.824Z" fill="#455A64"/>
<path d="M147.996 177.011C147.996 177.011 151.781 178.498 153.537 184.046C154.756 187.905 160.465 216.634 160.465 216.634L152.505 221.88L149.269 194.98L147.996 177.011Z" fill="white"/>
<path d="M117.725 163.289L115.233 167.711C115.233 167.711 98.57 176.18 98.6303 177.011C98.6303 177.011 99.5616 208.621 99.7358 231.81C99.8028 240.567 99.4812 248.613 99.307 252.479C98.8447 262.63 98.4829 302.059 98.4829 302.059L158.783 300.632L147.996 177.011L139.487 173.292L138.402 171.074L134.495 167.899L117.725 163.289Z" fill="white"/>
<path d="M144.13 300.961C144.139 300.871 144.139 300.782 144.13 300.693C144.13 300.498 144.13 300.237 144.097 299.909C144.056 299.192 144.003 298.173 143.929 296.874C143.775 294.227 143.547 290.421 143.259 285.738C142.69 276.318 141.919 263.333 141.041 248.989C140.164 234.644 139.467 221.659 138.924 212.232C138.676 207.542 138.469 203.744 138.328 201.09C138.254 199.791 138.201 198.779 138.16 198.062C138.16 197.734 138.12 197.472 138.107 197.278C138.102 197.188 138.09 197.099 138.073 197.01C138.066 197.099 138.066 197.189 138.073 197.278C138.073 197.472 138.073 197.734 138.073 198.069C138.073 198.779 138.127 199.797 138.174 201.097C138.268 203.73 138.435 207.542 138.656 212.246C139.098 221.626 139.809 234.657 140.666 249.015C141.524 263.374 142.355 276.351 142.991 285.752C143.313 290.442 143.581 294.234 143.762 296.887C143.862 298.18 143.942 299.198 143.996 299.909L144.063 300.699C144.076 300.789 144.098 300.876 144.13 300.961Z" fill="#263238"/>
<path d="M134.495 167.899L135.896 177.58L138.401 197.01L127.481 178.263L118 165.842L133.624 176.789L133.819 167.718" fill="#B36370"/>
<path d="M115.159 168.301C115.236 168.562 115.337 168.816 115.461 169.058C115.695 169.587 116.004 170.291 116.392 171.155L119.782 178.525L119.823 178.619H119.93H122.208L122.101 178.31L120.426 179.684L120.272 179.811L120.412 179.952L123.588 183.061L133.806 192.97L136.928 195.938L137.792 196.735C137.886 196.835 137.992 196.922 138.107 196.997C138.033 196.879 137.943 196.773 137.839 196.682L137.028 195.838L133.98 192.782L123.843 182.799C122.751 181.727 121.679 180.689 120.66 179.697V179.959L122.328 178.578L122.697 178.27H122.215H119.937L120.084 178.364C118.657 175.389 117.451 172.87 116.573 171.048C116.151 170.197 115.816 169.507 115.561 168.991C115.446 168.751 115.311 168.52 115.159 168.301Z" fill="#263238"/>
<path d="M138.401 196.99C138.505 196.594 138.579 196.191 138.622 195.784C138.743 194.946 138.897 193.834 139.085 192.488C139.46 189.7 139.956 185.848 140.478 181.593L140.961 177.627V177.473L140.807 177.433L138.066 176.763V177.084L140.813 176.595L141.001 176.562L140.921 176.394L139.112 172.461C138.904 172.039 138.736 171.684 138.596 171.396C138.546 171.265 138.476 171.143 138.388 171.034C138.416 171.171 138.461 171.304 138.522 171.429C138.643 171.724 138.79 172.099 138.964 172.528C139.393 173.533 139.969 174.88 140.659 176.508L140.766 176.314L138.013 176.763L137.222 176.89L137.999 177.084L140.733 177.754L140.599 177.567C140.438 178.826 140.277 180.16 140.103 181.526C139.581 185.788 139.125 189.64 138.817 192.434C138.676 193.774 138.555 194.906 138.468 195.784C138.415 196.184 138.392 196.587 138.401 196.99Z" fill="#263238"/>
<path d="M129.082 248.721H128.693L127.534 248.794L123.086 249.116L107.153 250.342H106.992V250.503C107.247 253.498 107.528 256.754 107.823 260.184C107.97 261.909 108.122 263.671 108.279 265.471C108.359 266.375 108.433 267.28 108.513 268.198C108.541 268.673 108.615 269.144 108.734 269.605C108.876 270.08 109.088 270.532 109.364 270.945C110.266 272.162 111.612 272.973 113.109 273.202C114.518 273.377 115.938 273.453 117.357 273.43C120.037 273.438 122.709 273.145 125.323 272.559C125.944 272.409 126.551 272.21 127.139 271.963C127.432 271.844 127.715 271.701 127.983 271.534C128.12 271.443 128.247 271.34 128.365 271.226C128.473 271.107 128.574 270.982 128.667 270.851C129.238 269.8 129.591 268.645 129.705 267.454C129.969 265.363 130.074 263.256 130.02 261.149C129.96 257.29 129.685 254.181 129.477 252.037C129.377 250.965 129.276 250.141 129.203 249.578C129.203 249.31 129.136 249.103 129.116 248.908C129.112 248.835 129.096 248.762 129.069 248.694C129.069 248.694 129.069 248.768 129.069 248.915C129.069 249.062 129.069 249.29 129.122 249.585C129.176 250.175 129.243 250.999 129.33 252.051C129.497 254.195 129.732 257.303 129.759 261.149C129.789 263.241 129.671 265.332 129.404 267.407C129.285 268.551 128.941 269.66 128.392 270.67C128.046 271.141 127.557 271.489 126.998 271.662C126.427 271.898 125.838 272.089 125.236 272.231C122.647 272.802 120.002 273.085 117.35 273.075C115.953 273.096 114.556 273.02 113.17 272.847C111.765 272.634 110.501 271.876 109.652 270.737C109.405 270.363 109.212 269.957 109.076 269.531C108.965 269.092 108.896 268.643 108.868 268.191C108.788 267.273 108.707 266.362 108.634 265.457C108.473 263.662 108.319 261.893 108.165 260.178C107.856 256.741 107.568 253.478 107.3 250.496L107.16 250.67L122.978 249.29L127.454 248.882L128.647 248.768C128.793 248.762 128.938 248.746 129.082 248.721Z" fill="#263238"/>
<g opacity="0.3">
<path d="M108.768 269.176C110.469 273.611 114.912 273.866 119.695 273.196C124.191 272.526 128.519 271.594 128.854 270.308C128.734 272.66 127.005 274.462 124.834 275.407C122.63 276.249 120.264 276.581 117.913 276.378C115.454 276.264 113.33 276.378 111.3 274.978C109.27 273.578 108.761 271.199 108.768 269.176Z" fill="black"/>
</g>
<path d="M154.374 250.094C154.368 250.039 154.368 249.982 154.374 249.927L154.314 249.444C154.269 248.998 154.202 248.375 154.113 247.575C153.952 245.913 153.724 243.555 153.443 240.687C152.894 234.872 152.157 226.832 151.379 217.954C150.602 209.077 149.932 201.03 149.483 195.174C149.262 192.26 149.101 189.901 149.008 188.273C148.954 187.456 148.934 186.826 148.92 186.391C148.92 186.196 148.92 186.035 148.92 185.901C148.911 185.846 148.911 185.789 148.92 185.734C149.081 187.623 150.2 200.427 151.728 217.894C152.492 226.765 153.188 234.791 153.691 240.64C153.925 243.528 154.12 245.873 154.254 247.535C154.314 248.325 154.361 248.955 154.394 249.411C154.394 249.605 154.394 249.766 154.394 249.9C154.397 249.965 154.39 250.031 154.374 250.094Z" fill="#263238"/>
<path d="M163.111 217.271C163.368 218.199 163.464 219.165 163.393 220.125C163.252 221.592 163.185 225.197 159.279 226.43C155.373 227.663 153.477 226.483 152.277 224.828L151.681 217.659L155.862 214.899L163.111 217.271Z" fill="white"/>
<g opacity="0.3">
<path d="M130.476 221.88C130.476 221.88 120.486 231.75 112.727 233.17C104.969 234.59 102.195 231.83 100.131 224.882L130.476 221.88Z" fill="black"/>
</g>
<path d="M98.8113 176.769C98.8113 176.769 92.4664 182.652 94.2754 196.581C95.9504 209.526 98.9654 227.549 102.905 229.646C106.845 231.743 115.454 230.691 121.732 227.133C128.01 223.576 146.2 213.954 146.2 213.954L138.67 200.554L114.409 209.934C114.409 209.934 111.273 188.494 109.391 184.769" fill="white"/>
<path d="M109.29 184.521C109.29 184.521 109.357 184.662 109.478 184.937C109.531 185.071 109.612 185.238 109.692 185.446C109.772 185.654 109.839 185.908 109.933 186.183C110.288 187.295 110.71 188.963 111.173 191.134C112.111 195.469 113.243 201.794 114.436 209.673L114.261 209.566L138.509 200.119L138.643 200.065L138.716 200.193C141.095 204.427 143.627 208.903 146.254 213.593L146.341 213.753L146.18 213.84L130.623 222.222L122.991 226.329C121.739 226.999 120.492 227.703 119.199 228.259C117.909 228.804 116.584 229.263 115.233 229.632C112.601 230.37 109.87 230.686 107.139 230.57C105.808 230.511 104.497 230.228 103.26 229.733L102.804 229.532C102.657 229.458 102.516 229.351 102.369 229.257C102.12 229.046 101.895 228.808 101.699 228.547C101.3 228.033 100.957 227.478 100.674 226.892C99.6285 224.639 98.8115 222.287 98.235 219.87C97.6253 217.546 97.1429 215.261 96.7074 213.043C95.8498 208.614 95.2133 204.46 94.6974 200.662C94.1815 196.863 93.6924 193.405 93.8331 190.344C93.8992 187.727 94.3646 185.135 95.2133 182.659C95.7633 181.099 96.5374 179.627 97.5114 178.29C97.7672 177.945 98.0447 177.616 98.3422 177.305C98.4438 177.201 98.5512 177.103 98.6638 177.011L98.369 177.332C98.0851 177.65 97.8189 177.983 97.5717 178.33C96.6285 179.677 95.8796 181.15 95.3473 182.706C94.516 185.171 94.0642 187.749 94.0073 190.35C93.8867 193.392 94.3691 196.829 94.9185 200.621C95.4679 204.414 96.1178 208.568 96.9888 212.99C97.4243 215.194 97.9134 217.472 98.5298 219.79C99.1035 222.183 99.9137 224.512 100.948 226.745C101.219 227.305 101.545 227.837 101.92 228.333C102.118 228.58 102.343 228.805 102.59 229.003C102.714 229.09 102.844 229.168 102.979 229.237L103.407 229.431C104.614 229.903 105.891 230.168 107.186 230.215C109.878 230.325 112.571 230.011 115.166 229.284C116.498 228.922 117.804 228.474 119.079 227.944C120.365 227.388 121.584 226.698 122.844 226.028L130.475 221.914L146.039 213.539L145.966 213.78L138.448 200.38L138.656 200.454L114.382 209.834L114.228 209.894V209.733C113.069 201.861 111.977 195.529 111.086 191.188C110.65 189.017 110.248 187.342 109.913 186.23C109.833 185.955 109.759 185.707 109.692 185.493L109.498 184.977C109.364 184.669 109.29 184.521 109.29 184.521Z" fill="#263238"/>
<path d="M118 200.574H130.04V196.568H118V200.574Z" fill="white"/>
<path d="M120.492 198.33C121.734 198.15 122.991 198.089 124.244 198.149C125.5 198.089 126.759 198.149 128.003 198.33C126.758 198.502 125.5 198.56 124.244 198.504C122.991 198.56 121.735 198.502 120.492 198.33Z" fill="#263238"/>
<g opacity="0.3">
<path d="M137.792 196.749L120.07 182.371L120.492 181.118H118.951L116.392 171.155L120.077 178.391L122.208 178.29L120.66 179.711L137.792 196.749Z" fill="black"/>
</g>
<path d="M115.903 180.361L116.573 180.093C116.573 180.059 115.119 176.595 113.692 172.924C113.179 171.795 112.971 170.553 113.089 169.319C113.169 168.931 113.384 168.584 113.695 168.339C114.007 168.093 114.395 167.966 114.791 167.979L115.26 167.731L115.501 167.302C114.261 167.034 112.6 168.073 112.399 169.219C112.268 170.581 112.499 171.954 113.069 173.198C114.442 176.89 115.883 180.327 115.903 180.361Z" fill="#455A64"/>
<path d="M114.858 188.454L115.749 188.106C115.019 186.223 114.02 182.893 114.449 181.955C114.66 181.62 114.941 181.334 115.271 181.116C115.601 180.898 115.974 180.752 116.365 180.689C116.844 180.563 117.345 180.549 117.83 180.649C118.315 180.749 118.77 180.96 119.159 181.265C120.178 182.129 121.719 185.171 122.228 186.277L123.092 185.875C123.018 185.707 121.169 181.707 119.776 180.515C119.274 180.113 118.686 179.834 118.058 179.699C117.43 179.565 116.78 179.578 116.158 179.737C115.618 179.831 115.106 180.045 114.66 180.364C114.215 180.683 113.847 181.099 113.585 181.58C112.861 183.134 114.516 187.61 114.858 188.454Z" fill="#455A64"/>
<path d="M124.479 202.98C125.578 202.98 126.663 202.39 127.702 201.224L127.34 200.903C126.201 202.196 125.022 202.705 123.856 202.43C119.092 201.311 115.461 188.079 115.427 187.945L114.965 188.066C115.119 188.622 118.703 201.713 123.742 202.893C123.983 202.951 124.231 202.981 124.479 202.98Z" fill="#263238"/>
<path d="M126.784 201.767C126.881 201.864 127.009 201.923 127.146 201.933C127.282 201.942 127.418 201.903 127.527 201.821L128.559 201.05C128.636 201.002 128.703 200.939 128.754 200.864C128.806 200.79 128.842 200.705 128.86 200.616C128.879 200.527 128.879 200.435 128.86 200.346C128.842 200.258 128.806 200.173 128.754 200.099C128.699 200.013 128.625 199.941 128.538 199.887C128.451 199.834 128.354 199.801 128.252 199.792C128.151 199.782 128.048 199.796 127.953 199.831C127.858 199.867 127.772 199.924 127.702 199.998L126.77 200.963C126.666 201.072 126.608 201.217 126.611 201.368C126.613 201.519 126.676 201.662 126.784 201.767Z" fill="#263238"/>
<path d="M122.456 203.415C123.075 203.463 123.697 203.355 124.265 203.101C124.832 202.847 125.327 202.455 125.705 201.961C128.633 197.854 123.112 186.451 122.878 185.968L122.449 186.176C122.502 186.297 128.084 197.807 125.316 201.687C124.593 202.698 123.306 203.1 121.551 202.879L121.491 203.348C121.81 203.393 122.133 203.415 122.456 203.415Z" fill="#263238"/>
<path d="M122.543 203.154C122.533 203.29 122.476 203.419 122.38 203.516C122.284 203.613 122.156 203.672 122.02 203.683L120.734 203.79C120.645 203.805 120.553 203.801 120.466 203.779C120.378 203.757 120.296 203.718 120.224 203.663C120.152 203.609 120.092 203.54 120.047 203.462C120.002 203.384 119.974 203.297 119.963 203.208C119.946 203.107 119.953 203.004 119.982 202.906C120.011 202.808 120.062 202.719 120.132 202.644C120.201 202.569 120.286 202.511 120.381 202.474C120.476 202.437 120.578 202.422 120.68 202.43L122.02 202.544C122.169 202.558 122.307 202.629 122.405 202.743C122.503 202.857 122.552 203.004 122.543 203.154Z" fill="#263238"/>
<path d="M145.47 189.164C147.35 189.164 148.874 187.641 148.874 185.761C148.874 183.881 147.35 182.357 145.47 182.357C143.59 182.357 142.066 183.881 142.066 185.761C142.066 187.641 143.59 189.164 145.47 189.164Z" fill="#263238"/>
<path d="M145.47 189.164C147.35 189.164 148.874 187.641 148.874 185.761C148.874 183.881 147.35 182.357 145.47 182.357C143.59 182.357 142.066 183.881 142.066 185.761C142.066 187.641 143.59 189.164 145.47 189.164Z" fill="#263238"/>
<path d="M142.958 185.761C142.956 186.26 143.103 186.748 143.379 187.163C143.656 187.578 144.049 187.902 144.51 188.094C144.97 188.285 145.477 188.336 145.967 188.239C146.456 188.142 146.905 187.902 147.258 187.549C147.611 187.196 147.851 186.747 147.948 186.257C148.045 185.768 147.994 185.261 147.803 184.8C147.611 184.34 147.287 183.946 146.872 183.67C146.457 183.394 145.969 183.247 145.47 183.248C144.804 183.248 144.165 183.513 143.693 183.984C143.222 184.455 142.958 185.094 142.958 185.761Z" fill="#E0E0E0"/>
<path d="M138.247 170.934C138.569 171.396 142.127 178.907 144.07 182.692L144.639 182.397C144.351 181.841 139.179 171.168 138.777 170.572L135.011 167.51L134.877 168.227L138.247 170.934Z" fill="#455A64"/>
<path d="M136.82 185.68C139.286 188.139 145.53 194.538 145.53 194.538L147.199 193.533L138.408 184.153C138.23 183.963 137.99 183.842 137.731 183.813C137.472 183.783 137.211 183.847 136.995 183.992C136.859 184.082 136.746 184.2 136.662 184.339C136.578 184.478 136.525 184.634 136.509 184.795C136.492 184.956 136.511 185.12 136.565 185.273C136.619 185.426 136.706 185.565 136.82 185.68Z" fill="#263238"/>
<path d="M138.596 200.28L140.693 194.37C140.91 193.733 141.315 193.176 141.854 192.772C142.393 192.368 143.042 192.136 143.715 192.106H144.029C145.289 192.246 151.701 192.668 151.701 192.668L154.18 195.449C154.384 195.68 154.496 195.978 154.496 196.286C154.496 196.595 154.384 196.893 154.18 197.124L154.897 202.149L153.51 203.114L153.651 206.625C153.651 206.625 152.398 207.455 151.842 207.181L151.279 206.899L150.448 206.062L148.076 209.412L144.8 211.308L138.596 200.28Z" fill="#FFBF9D"/>
<path d="M154.22 197.405C153.94 197.064 153.64 196.74 153.322 196.434C152.966 196.128 152.56 195.883 152.123 195.71C151.554 195.576 150.973 195.497 150.388 195.476C148.849 195.391 147.319 195.185 145.812 194.859C147.353 194.823 148.894 194.908 150.421 195.114C151.036 195.134 151.645 195.229 152.237 195.395C152.707 195.594 153.134 195.881 153.497 196.24C153.86 196.538 154.114 196.948 154.22 197.405Z" fill="#FF9A6C"/>
<path d="M154.079 202.022C153.936 201.584 153.764 201.157 153.564 200.742C152.991 199.793 152.119 199.062 151.085 198.665C150.032 198.286 148.92 198.098 147.802 198.109C147.332 198.141 146.861 198.127 146.395 198.069C146.848 197.917 147.324 197.845 147.802 197.854C148.961 197.765 150.126 197.924 151.219 198.323C152.33 198.746 153.246 199.564 153.791 200.621C154.043 201.042 154.144 201.536 154.079 202.022Z" fill="#FF9A6C"/>
<path d="M153.45 206.33C153.218 205.908 153.102 205.431 153.115 204.95C153.087 204.456 152.981 203.969 152.8 203.509C152.676 203.245 152.489 203.016 152.255 202.842C152.021 202.668 151.748 202.554 151.46 202.511C150.355 202.274 149.236 202.113 148.11 202.028C147.631 202.009 147.161 201.9 146.723 201.707C147.195 201.696 147.668 201.718 148.137 201.774C149.284 201.783 150.426 201.911 151.547 202.156C151.884 202.24 152.203 202.388 152.485 202.591C152.747 202.796 152.95 203.066 153.075 203.375C153.258 203.872 153.346 204.4 153.336 204.93C153.369 205.801 153.51 206.31 153.45 206.33Z" fill="#FF9A6C"/>
<path d="M156.947 195.248L129.29 223.81L130.355 224.889L150.167 222.658L176.826 197.258L176.799 196.039L156.947 195.248Z" fill="#455A64"/>
<g opacity="0.3">
<path d="M162.126 208.568C161.475 207.973 160.706 207.522 159.869 207.243C159.033 206.963 158.147 206.862 157.269 206.946C155.51 207.126 153.845 207.826 152.485 208.956C151.334 209.8 150.495 211.002 150.1 212.373C149.537 214.772 151.514 218.128 153.691 219.294C156.452 217.077 159.138 213.673 161.899 211.462C162.346 211.172 162.684 210.74 162.857 210.236C162.88 209.919 162.826 209.602 162.698 209.311C162.571 209.021 162.375 208.765 162.126 208.568Z" fill="black"/>
</g>
<path d="M176.719 197.204C176.598 197.213 176.477 197.213 176.357 197.204H175.298L171.332 197.157L157.53 196.916L157.657 196.863L150.73 204.052L136.358 218.839L131.976 223.287L130.77 224.487C130.634 224.63 130.489 224.765 130.335 224.889C130.453 224.734 130.585 224.59 130.73 224.46L131.889 223.214L136.191 218.685C139.869 214.859 144.901 209.613 150.482 203.824C152.927 201.291 155.279 198.866 157.423 196.655L157.476 196.601H157.53L171.312 196.997L175.272 197.137L176.33 197.191C176.46 197.181 176.59 197.186 176.719 197.204Z" fill="#263238"/>
<path d="M159.406 205.579C159.406 205.579 162.086 205.633 162.964 206.068C163.841 206.504 166.24 209.05 166.24 209.05C166.24 209.05 166.24 210.792 165.57 210.859C165.656 211.249 165.703 211.646 165.711 212.045C165.778 213.023 165.918 213.579 164.592 214.417C164.592 214.417 164.733 216.018 164.243 216.427C163.913 216.705 163.564 216.96 163.198 217.19C163.198 217.19 163.125 218.953 160.759 218.932L158.542 219.911C158.542 219.911 153.611 219.448 154.133 218.865C154.656 218.283 155.842 215.395 155.842 215.395C155.842 215.395 152.492 212.936 152.532 212.172C152.572 211.408 152.88 211.335 152.88 211.335C152.88 211.335 152.746 209.874 153.925 209.733C153.925 209.733 154.837 207.918 155.741 207.851C156.646 207.784 162.783 210.008 162.783 210.008L160.485 208.058C160.485 208.058 158.18 207.71 158.254 206.939C158.327 206.169 159.406 205.579 159.406 205.579Z" fill="#FFBF9D"/>
<path d="M159.004 214.765C157.94 214.317 156.9 213.813 155.888 213.258C154.825 212.802 153.785 212.292 152.773 211.73C153.921 211.944 155.027 212.339 156.049 212.903C157.126 213.365 158.123 213.993 159.004 214.765Z" fill="#FF9A6C"/>
<path d="M162.22 212.634C160.845 212.316 159.501 211.882 158.2 211.335C156.864 210.901 155.568 210.352 154.327 209.693C155.702 210.011 157.047 210.446 158.347 210.993C159.684 211.427 160.979 211.976 162.22 212.634Z" fill="#FF9A6C"/>
<path d="M118.549 150.894C117.658 147.855 117.026 144.747 116.66 141.601C116.295 138.44 116.718 135.238 117.893 132.281C118.087 131.839 119.668 128.931 120.137 128.972C120.479 129.018 119.467 131.786 119.615 132.094C121.116 135.002 121.384 138.425 120.955 141.675C120.507 144.827 119.71 147.919 118.576 150.894" fill="#263238"/>
<path d="M118.865 138.814C119.012 130.868 123.762 124.342 131.695 124.744L132.425 124.824C135.978 125.191 139.262 126.884 141.622 129.565C143.982 132.246 145.243 135.719 145.155 139.29C144.988 146.17 144.713 153.768 144.284 157.426C143.393 164.991 135.688 165.373 135.688 165.373L133.933 177.044L117.726 165.775L118.865 138.814Z" fill="#FFBF9D"/>
<path d="M135.661 165.4C132.162 165.019 128.844 163.645 126.101 161.44C126.101 161.44 127.615 167.919 135.246 168.033L135.661 165.4Z" fill="#FF9A6C"/>
<path d="M142.241 145.594C142.213 145.876 142.077 146.137 141.86 146.319C141.644 146.502 141.364 146.593 141.081 146.572C140.943 146.569 140.806 146.538 140.68 146.481C140.553 146.424 140.439 146.342 140.345 146.24C140.251 146.138 140.178 146.019 140.13 145.888C140.083 145.758 140.063 145.619 140.07 145.48C140.097 145.198 140.233 144.937 140.45 144.753C140.666 144.569 140.946 144.477 141.229 144.495C141.368 144.5 141.505 144.532 141.631 144.59C141.758 144.647 141.871 144.73 141.966 144.832C142.06 144.935 142.133 145.055 142.18 145.186C142.227 145.316 142.248 145.455 142.241 145.594Z" fill="#263238"/>
<path d="M143.179 142.231C143.031 142.351 142.274 141.661 141.108 141.561C139.943 141.46 139.031 141.936 138.918 141.782C138.804 141.628 139.025 141.467 139.427 141.239C139.968 140.94 140.589 140.819 141.202 140.891C141.807 140.952 142.377 141.203 142.83 141.608C143.159 141.903 143.252 142.171 143.179 142.231Z" fill="#263238"/>
<path d="M132.278 145.125C132.25 145.408 132.114 145.669 131.898 145.853C131.681 146.037 131.402 146.129 131.119 146.11C130.98 146.106 130.843 146.074 130.716 146.016C130.59 145.958 130.476 145.876 130.382 145.773C130.288 145.671 130.215 145.551 130.167 145.42C130.12 145.289 130.1 145.15 130.107 145.011C130.142 144.735 130.282 144.482 130.497 144.305C130.713 144.128 130.988 144.041 131.266 144.06C131.402 144.063 131.537 144.094 131.661 144.149C131.786 144.205 131.899 144.284 131.993 144.383C132.087 144.482 132.16 144.598 132.209 144.726C132.258 144.853 132.281 144.989 132.278 145.125Z" fill="#263238"/>
<path d="M131.721 141.494C131.574 141.621 130.817 140.931 129.651 140.824C128.485 140.717 127.574 141.199 127.46 141.038C127.346 140.877 127.567 140.73 127.969 140.502C128.51 140.203 129.131 140.081 129.745 140.154C130.35 140.215 130.92 140.466 131.373 140.871C131.701 141.172 131.795 141.44 131.721 141.494Z" fill="#263238"/>
<path d="M134.958 150.887C135.592 150.756 136.241 150.709 136.887 150.747C137.182 150.747 137.47 150.747 137.557 150.519C137.614 150.213 137.577 149.898 137.45 149.614L136.814 147.256C135.929 143.906 135.326 141.159 135.474 141.125C135.621 141.092 136.432 143.805 137.316 147.155C137.524 147.979 137.725 148.77 137.919 149.52C138.058 149.904 138.058 150.323 137.919 150.706C137.866 150.806 137.79 150.892 137.699 150.959C137.607 151.025 137.501 151.069 137.39 151.088C137.219 151.11 137.045 151.11 136.874 151.088C136.229 151.1 135.586 151.033 134.958 150.887Z" fill="#263238"/>
<path d="M131.447 151.329C131.635 151.329 131.507 152.602 132.492 153.614C133.477 154.626 134.837 154.626 134.83 154.807C134.824 154.988 134.502 155.021 133.933 154.974C133.192 154.907 132.498 154.58 131.976 154.05C131.472 153.544 131.186 152.861 131.179 152.147C131.186 151.611 131.36 151.316 131.447 151.329Z" fill="#263238"/>
<path d="M132.157 136.764C132.01 137.065 130.864 136.764 129.477 136.817C128.09 136.871 126.951 137.092 126.797 136.817C126.73 136.67 126.958 136.395 127.467 136.147C128.09 135.831 128.779 135.666 129.477 135.665C130.174 135.661 130.862 135.819 131.487 136.127C131.996 136.342 132.224 136.616 132.157 136.764Z" fill="#263238"/>
<path d="M143.105 138.305C142.87 138.546 142.1 138.191 141.135 138.077C140.17 137.963 139.34 138.077 139.179 137.769C139.112 137.628 139.266 137.373 139.648 137.159C140.157 136.904 140.733 136.813 141.296 136.898C141.861 136.954 142.394 137.189 142.817 137.568C143.125 137.903 143.212 138.184 143.105 138.305Z" fill="#263238"/>
<path d="M118.891 144.489C118.764 144.415 113.846 142.398 113.464 147.598C113.082 152.797 118.382 152.107 118.402 151.959C118.422 151.812 118.891 144.489 118.891 144.489Z" fill="#FFBF9D"/>
<path d="M116.955 149.869C116.955 149.869 116.861 149.929 116.7 149.989C116.48 150.06 116.241 150.046 116.03 149.949C115.501 149.708 115.099 148.804 115.139 147.866C115.161 147.419 115.28 146.982 115.488 146.586C115.545 146.422 115.642 146.274 115.771 146.157C115.9 146.04 116.056 145.957 116.225 145.916C116.331 145.895 116.441 145.912 116.536 145.965C116.63 146.018 116.703 146.102 116.74 146.204C116.801 146.351 116.74 146.452 116.787 146.465C116.834 146.479 116.901 146.385 116.874 146.17C116.855 146.039 116.791 145.918 116.694 145.829C116.627 145.77 116.55 145.725 116.466 145.696C116.382 145.667 116.293 145.655 116.204 145.661C115.987 145.686 115.78 145.767 115.604 145.896C115.427 146.025 115.288 146.198 115.199 146.398C114.947 146.831 114.802 147.318 114.777 147.819C114.737 148.871 115.199 149.889 115.936 150.164C116.073 150.214 116.219 150.234 116.364 150.22C116.509 150.206 116.649 150.159 116.774 150.083C116.941 149.996 116.975 149.882 116.955 149.869Z" fill="#FF9A6C"/>
<path d="M142.321 130.419C143.192 130.01 140.84 127.122 138.83 126.05C135.795 124.429 131.078 123.25 128.11 123.88C124.573 124.643 121.578 126.184 119.635 129.24C117.75 132.348 116.725 135.902 116.667 139.537C116.552 140.642 116.735 141.757 117.196 142.767C117.866 143.959 119.206 144.777 119.032 146.358C118.994 146.644 119.013 146.934 119.087 147.212C119.162 147.491 119.291 147.751 119.467 147.979C120.358 149.058 121.578 148.18 122.181 147.263C123.454 145.293 123.735 142.874 123.99 140.563C124.261 138.919 124.261 137.242 123.99 135.598C123.789 134.713 123.434 133.869 123.32 132.971C123.217 132.529 123.212 132.07 123.305 131.626C123.397 131.182 123.585 130.763 123.856 130.399C123.993 130.253 124.143 130.121 124.305 130.003C125.071 129.418 125.98 129.048 126.937 128.93C127.895 128.812 128.866 128.952 129.752 129.333C132.613 130.559 137.517 132.429 138.891 131.518C140.86 130.211 141.37 129.307 141.37 129.307L142.321 130.419Z" fill="#263238"/>
</g>
<defs>
<clipPath id="clip0_2001_2968">
<rect width="335" height="335" fill="white" transform="translate(30 51)"/>
</clipPath>
</defs>
</svg>
