<svg width="335" height="370" viewBox="0 0 335 370" fill="none" xmlns="http://www.w3.org/2000/svg">
<path fill-rule="evenodd" clip-rule="evenodd" d="M175.37 3.17208C205.382 -6.78756 238.838 8.48472 266.184 24.3552C293.497 40.2055 320.635 62.3231 329.494 92.6168C338.117 122.104 311.427 150.823 312.15 181.534C312.9 213.362 341.227 241.958 333.742 272.903C325.958 305.088 300.724 332.277 271.788 348.413C242.986 364.475 208.305 363.012 175.37 361.221C143.737 359.501 106.558 361.278 84.825 338.246C62.6304 314.725 70.7153 276.792 65.5824 244.873C62.1571 223.573 67.3514 201.679 59.6243 181.534C45.7495 145.363 -14.3652 116.738 3.18177 82.1955C20.1939 48.706 79.6219 90.6066 113.777 74.9317C142.932 61.5514 144.922 13.2761 175.37 3.17208Z" fill="#B36370" fill-opacity="0.2"/>
<g clip-path="url(#clip0_367_1345)">
<path d="M94.2194 99.0874H48.8354C48.0572 99.0874 47.3109 98.7641 46.7607 98.1886C46.2105 97.6131 45.9014 96.8326 45.9014 96.0187C45.9014 95.2049 46.2105 94.4243 46.7607 93.8489C47.3109 93.2734 48.0572 92.9501 48.8354 92.9501H94.2194C94.9975 92.9501 95.7438 93.2734 96.294 93.8489C96.8442 94.4243 97.1534 95.2049 97.1534 96.0187C97.1534 96.8326 96.8442 97.6131 96.294 98.1886C95.7438 98.7641 94.9975 99.0874 94.2194 99.0874Z" fill="#B36370"/>
<g opacity="0.2">
<path d="M94.2203 99.0874H48.8363C48.0582 99.0874 47.3119 98.7641 46.7617 98.1886C46.2115 97.6131 45.9023 96.8326 45.9023 96.0187C45.9023 95.2049 46.2115 94.4243 46.7617 93.8489C47.3119 93.2734 48.0582 92.9501 48.8363 92.9501H94.2203C94.9985 92.9501 95.7448 93.2734 96.295 93.8489C96.8452 94.4243 97.1543 95.2049 97.1543 96.0187C97.1543 96.8326 96.8452 97.6131 96.295 98.1886C95.7448 98.7641 94.9985 99.0874 94.2203 99.0874Z" fill="white"/>
</g>
<path d="M94.2194 92.9501H48.8354C48.4501 92.9501 48.0685 92.8707 47.7126 92.7165C47.3566 92.5623 47.0332 92.3362 46.7607 92.0513C46.4883 91.7663 46.2722 91.428 46.1247 91.0557C45.9773 90.6834 45.9014 90.2844 45.9014 89.8814C45.9014 89.0676 46.2105 88.287 46.7607 87.7116C47.3109 87.1361 48.0572 86.8128 48.8354 86.8128H94.2194C94.9975 86.8128 95.7438 87.1361 96.294 87.7116C96.8442 88.287 97.1534 89.0676 97.1534 89.8814C97.1534 90.6953 96.8442 91.4758 96.294 92.0513C95.7438 92.6268 94.9975 92.9501 94.2194 92.9501Z" fill="#B36370"/>
<g opacity="0.2">
<path d="M94.2203 92.9501H48.8363C48.451 92.9501 48.0695 92.8707 47.7135 92.7165C47.3576 92.5623 47.0341 92.3362 46.7617 92.0513C46.4892 91.7663 46.2731 91.428 46.1257 91.0557C45.9782 90.6834 45.9023 90.2844 45.9023 89.8814C45.9023 89.0676 46.2115 88.287 46.7617 87.7116C47.3119 87.1361 48.0582 86.8128 48.8363 86.8128H94.2203C94.9985 86.8128 95.7448 87.1361 96.295 87.7116C96.8452 88.287 97.1543 89.0676 97.1543 89.8814C97.1543 90.6953 96.8452 91.4758 96.295 92.0513C95.7448 92.6268 94.9985 92.9501 94.2203 92.9501Z" fill="white"/>
</g>
<path d="M95 92.9502C95 93.0569 85.736 93.1386 74.312 93.1386C62.888 93.1386 53.624 93.0569 53.624 92.9502C53.624 92.8434 62.888 92.7618 74.312 92.7618C85.736 92.7618 95 92.8497 95 92.9502Z" fill="#263238"/>
<path d="M110.094 113.627H36.6844C35.7577 113.626 34.8695 113.239 34.2148 112.554C33.5601 111.868 33.1924 110.938 33.1924 109.969C33.194 109.001 33.5624 108.073 34.2169 107.388C34.8715 106.703 35.7587 106.318 36.6844 106.317H110.094C111.021 106.317 111.909 106.701 112.564 107.386C113.218 108.071 113.586 109 113.586 109.969C113.587 110.449 113.497 110.925 113.322 111.368C113.147 111.812 112.89 112.216 112.566 112.555C112.241 112.895 111.856 113.165 111.432 113.349C111.008 113.533 110.553 113.627 110.094 113.627Z" fill="#B36370"/>
<path d="M110.094 106.317H36.684C36.2241 106.319 35.7683 106.227 35.3426 106.045C34.9169 105.863 34.5297 105.595 34.2031 105.256C33.8765 104.917 33.617 104.515 33.4394 104.071C33.2618 103.627 33.1695 103.152 33.168 102.671C33.1672 102.188 33.2577 101.71 33.4342 101.264C33.6108 100.818 33.8699 100.413 34.1967 100.073C34.5235 99.7322 34.9116 99.4625 35.3384 99.2794C35.7653 99.0963 36.2226 99.0033 36.684 99.0057H110.094C110.554 99.0057 111.009 99.1006 111.433 99.285C111.858 99.4693 112.243 99.7394 112.567 100.08C112.892 100.42 113.149 100.824 113.324 101.269C113.498 101.714 113.588 102.19 113.586 102.671C113.584 103.638 113.216 104.565 112.561 105.249C111.906 105.933 111.019 106.317 110.094 106.317Z" fill="#B36370"/>
<path d="M110.208 106.317C110.208 106.417 95.6762 106.505 77.7482 106.505C59.8202 106.505 45.2822 106.417 45.2822 106.317C45.2822 106.216 59.8142 106.128 77.7482 106.128C95.6822 106.128 110.208 106.21 110.208 106.317Z" fill="#263238"/>
<path d="M41.8145 118.792H37.1045V128.061H41.8145V118.792Z" fill="#455A64"/>
<path d="M219.506 138.777H214.796V148.046H219.506V138.777Z" fill="#455A64"/>
<path d="M108.229 118.792H103.519V128.061H108.229V118.792Z" fill="#455A64"/>
<path d="M285.92 138.777H281.21V148.046H285.92V138.777Z" fill="#455A64"/>
<path d="M123.127 113.627H22.3086V119.752H123.127V113.627Z" fill="#455A64"/>
<path d="M300.818 133.612H200V139.737H300.818V133.612Z" fill="#455A64"/>
<path d="M123.954 119.388C123.954 119.489 101.256 119.577 73.2661 119.577C45.2761 119.577 22.5781 119.489 22.5781 119.388C22.5781 119.288 45.2701 119.2 73.2661 119.2C101.262 119.2 123.954 119.282 123.954 119.388Z" fill="#263238"/>
<path d="M301.646 139.373C301.646 139.474 278.948 139.562 250.958 139.562C222.968 139.562 200.27 139.474 200.27 139.373C200.27 139.273 222.962 139.185 250.958 139.185C278.954 139.185 301.646 139.267 301.646 139.373Z" fill="#263238"/>
<path d="M232.416 104.946L236.676 134.239H261.438L267.186 105.373L232.416 104.946Z" fill="#B36370"/>
<path d="M263.72 123.722C263.72 123.803 257.372 123.872 249.548 123.872C241.724 123.872 235.382 123.803 235.382 123.722C235.382 123.64 241.724 123.565 249.548 123.565C257.372 123.565 263.72 123.634 263.72 123.722Z" fill="#FAFAFA"/>
<path d="M263.82 122.278C263.82 122.36 257.43 122.429 249.552 122.429C241.674 122.429 235.29 122.36 235.29 122.278C235.29 122.197 241.674 122.128 249.552 122.128C257.43 122.128 263.82 122.203 263.82 122.278Z" fill="#FAFAFA"/>
<path d="M263.772 120.653C263.772 120.734 257.382 120.803 249.504 120.803C241.626 120.803 235.236 120.734 235.236 120.653C235.236 120.572 241.626 120.503 249.504 120.503C257.382 120.503 263.772 120.565 263.772 120.653Z" fill="#FAFAFA"/>
<path d="M239.52 132.57C238.923 130.131 238.511 127.647 238.29 125.14C238.887 127.579 239.299 130.063 239.52 132.57Z" fill="#FAFAFA"/>
<path d="M241.206 132.244C240.954 129.848 240.798 127.443 240.738 125.034C241.182 127.407 241.339 129.829 241.206 132.244Z" fill="#FAFAFA"/>
<path d="M244.279 132.244C243.939 131.041 243.722 129.804 243.631 128.554C243.445 127.309 243.383 126.047 243.445 124.789C243.673 126.014 243.831 127.253 243.919 128.498C244.105 129.738 244.225 130.989 244.279 132.244Z" fill="#FAFAFA"/>
<path d="M246.434 132.407C246.194 131.168 246.08 129.906 246.092 128.642C246.005 127.386 246.041 126.125 246.2 124.877C246.331 126.127 246.391 127.384 246.38 128.642C246.471 129.895 246.489 131.152 246.434 132.407Z" fill="#FAFAFA"/>
<path d="M250.249 132.244C250.063 131.068 249.975 129.878 249.985 128.686C249.902 127.497 249.912 126.303 250.015 125.115C250.201 126.291 250.289 127.482 250.279 128.673C250.362 129.863 250.352 131.057 250.249 132.244Z" fill="#FAFAFA"/>
<path d="M253.033 132.413C252.899 131.191 252.861 129.959 252.919 128.73C252.875 127.501 252.934 126.271 253.093 125.052C253.226 126.273 253.264 127.503 253.207 128.73C253.242 129.96 253.184 131.192 253.033 132.413Z" fill="#FAFAFA"/>
<path d="M255.644 132.018C255.621 130.732 255.693 129.446 255.86 128.171C255.929 126.888 256.096 125.612 256.358 124.356C256.385 125.642 256.314 126.928 256.148 128.203C256.079 129.487 255.91 130.763 255.644 132.018Z" fill="#FAFAFA"/>
<path d="M259.015 131.616C259.018 130.513 259.157 129.414 259.429 128.347C259.606 127.264 259.917 126.209 260.353 125.209C260.198 126.294 259.986 127.369 259.717 128.429C259.541 129.504 259.306 130.569 259.015 131.616Z" fill="#FAFAFA"/>
<path d="M256.633 47.1503C256.625 47.1994 256.613 47.2478 256.597 47.2947L256.483 47.7088L256.015 49.2902C255.799 49.968 255.547 50.8088 255.289 51.8004C255.031 52.7919 254.689 53.89 254.395 55.1388C254.101 56.3876 253.741 57.7431 253.429 59.2178C253.117 60.6925 252.799 62.2739 252.475 63.9369C251.875 67.2753 251.341 70.9652 250.957 74.8685C250.573 78.7718 250.429 82.4993 250.357 85.9005C250.357 87.5949 250.357 89.2076 250.399 90.72C250.441 92.2324 250.501 93.638 250.573 94.9182C250.645 96.1984 250.741 97.3593 250.819 98.3759C250.897 99.3925 250.981 100.259 251.059 100.98C251.137 101.702 251.179 102.235 251.221 102.631C251.221 102.8 251.221 102.944 251.257 103.057C251.265 103.107 251.265 103.158 251.257 103.208C251.253 103.16 251.253 103.112 251.257 103.064C251.257 102.951 251.221 102.813 251.191 102.637C251.135 102.219 251.063 101.673 250.975 100.999C250.879 100.284 250.771 99.4114 250.687 98.3947C250.603 97.3781 250.465 96.2172 250.399 94.9308C250.333 93.6443 250.225 92.2386 250.189 90.7263C250.153 89.2139 250.123 87.5886 250.117 85.8943C250.153 82.493 250.309 78.7467 250.675 74.8371C251.041 70.9276 251.605 67.2251 252.217 63.8804C252.547 62.2174 252.847 60.6298 253.201 59.1613C253.555 57.6929 253.873 56.3249 254.203 55.0824C254.533 53.8398 254.857 52.7291 255.139 51.7502C255.421 50.7712 255.685 49.9366 255.913 49.24L256.435 47.6712C256.495 47.508 256.537 47.3762 256.579 47.2696C256.621 47.1629 256.627 47.144 256.633 47.1503Z" fill="#455A64"/>
<path d="M252.163 65.286C252.84 63.1751 254.2 61.3775 256.009 60.203C256.292 59.9669 256.626 59.8073 256.981 59.7383C257.337 59.6694 257.704 59.6932 258.049 59.8077C258.913 60.247 258.979 61.5146 258.721 62.481C258.279 64.1238 257.284 65.5439 255.919 66.4784C254.713 67.4123 253.204 67.8114 251.719 67.5891" fill="#455A64"/>
<path d="M250.657 77.5356C251.299 75.0254 253.225 71.4108 255.229 69.8483C255.534 69.5829 255.887 69.3844 256.267 69.2647C256.457 69.2074 256.658 69.2003 256.852 69.2441C257.046 69.2879 257.226 69.3812 257.377 69.5157C257.549 69.7523 257.662 70.0298 257.705 70.3233C257.749 70.6169 257.723 70.9172 257.629 71.1975C257.218 73.0376 256.328 74.7227 255.057 76.0654C253.786 77.4081 252.184 78.3558 250.429 78.8032" fill="#455A64"/>
<path d="M250.242 88.3165C251.234 85.9007 252.825 83.8058 254.85 82.2482C255.067 82.0403 255.322 81.8803 255.599 81.7779C255.876 81.6754 256.171 81.6327 256.464 81.6521C257.334 81.8152 257.73 82.9071 257.664 83.861C257.502 85.7436 256.11 87.2936 254.664 88.4797C253.345 89.432 251.913 90.2019 250.404 90.7701" fill="#455A64"/>
<path d="M250.477 96.0603C251.437 94.2186 252.777 92.6237 254.401 91.3915C254.753 91.1101 255.164 90.9208 255.601 90.8392C255.814 90.7995 256.034 90.8211 256.237 90.9018C256.44 90.9825 256.618 91.1192 256.753 91.2973C257.149 91.9249 256.753 92.7218 256.351 93.3054C254.967 95.3213 253.007 96.8246 250.753 97.5978" fill="#455A64"/>
<path d="M250.278 92.9165C248.588 90.747 246.71 88.7451 244.668 86.9361C244.35 86.6537 243.948 86.3588 243.552 86.4968C243.403 86.563 243.275 86.6727 243.183 86.8129C243.092 86.9531 243.041 87.1178 243.036 87.2875C243.037 87.6267 243.111 87.9613 243.252 88.2665C243.92 89.8222 244.914 91.2008 246.16 92.3001C247.406 93.3994 248.873 94.1914 250.452 94.6171" fill="#455A64"/>
<path d="M250.459 82.832L246.055 77.1842C245.665 76.622 245.179 76.1409 244.621 75.7659C244.338 75.5851 244.013 75.4895 243.682 75.4895C243.35 75.4895 243.025 75.5851 242.743 75.7659C242.485 75.9902 242.292 76.2852 242.186 76.6178C242.08 76.9505 242.065 77.3074 242.143 77.6485C242.297 78.3213 242.59 78.9509 243.001 79.4935C243.855 80.8774 244.942 82.0873 246.211 83.0642C247.507 83.9929 248.683 84.6016 250.237 84.3569" fill="#455A64"/>
<path d="M251.071 71.4735C250.208 68.7839 248.678 66.3822 246.637 64.5141C246.319 64.1755 245.922 63.9309 245.485 63.805C245.035 63.7691 244.587 63.8979 244.219 64.1692C243.85 64.4405 243.583 64.8375 243.463 65.2922C243.321 65.8015 243.283 66.3365 243.352 66.8621C243.421 67.3877 243.596 67.892 243.865 68.3421C244.403 69.2415 245.106 70.02 245.935 70.6326C247.418 71.8209 249.073 72.7551 250.837 73.4" fill="#455A64"/>
<path d="M252.834 61.3326C252.408 58.0757 250.782 55.3648 248.904 52.7292C248.508 52.1707 247.956 51.5808 247.302 51.6875C247.095 51.7347 246.903 51.8352 246.743 51.9799C246.582 52.1245 246.459 52.3087 246.384 52.5158C246.236 52.9303 246.177 53.3737 246.21 53.8148C246.289 55.7897 246.922 57.6964 248.032 59.2961C249.142 60.8958 250.679 62.1173 252.45 62.8074" fill="#455A64"/>
<path d="M234.87 60.0776C234.88 60.2154 234.88 60.3539 234.87 60.4918C234.87 60.793 234.87 61.1821 234.87 61.6715C234.87 62.161 234.87 62.8136 234.87 63.5541C234.87 64.2946 234.9 65.1104 234.96 66.0266C235.032 67.859 235.206 70.0365 235.47 72.4463C235.734 74.856 236.148 77.4665 236.67 80.2277C237.192 82.9888 237.87 85.5366 238.542 87.8648C239.214 90.1929 239.904 92.2575 240.54 93.9581C240.84 94.8179 241.14 95.5772 241.41 96.2549C241.68 96.9327 241.908 97.51 242.106 97.9806C242.304 98.4513 242.436 98.7902 242.55 99.0663C242.609 99.1901 242.653 99.3207 242.682 99.4553C242.61 99.3401 242.548 99.2183 242.496 99.0914L242.004 98.0308C241.788 97.5665 241.536 96.9954 241.26 96.324C240.984 95.6525 240.66 94.8932 240.348 94.0334C239.688 92.3265 238.986 90.2682 238.29 87.9464C237.594 85.6245 236.946 83.0328 236.388 80.2842C235.83 77.5356 235.458 74.8937 235.188 72.4777C234.918 70.0617 234.786 67.8778 234.732 66.0392C234.69 65.1167 234.696 64.2883 234.69 63.529C234.684 62.7697 234.69 62.1736 234.69 61.6464C234.69 61.1193 234.69 60.7616 234.732 60.4604C234.763 60.3275 234.81 60.199 234.87 60.0776Z" fill="#263238"/>
<path d="M235.561 73.4189C235.589 71.8286 236.144 70.2979 237.133 69.0889C237.277 68.8652 237.472 68.6823 237.7 68.5564C237.928 68.4305 238.183 68.3655 238.441 68.3672C239.119 68.4676 239.425 69.3211 239.449 70.0364C239.487 71.2543 239.101 72.4453 238.363 73.3875C237.732 74.2937 236.786 74.9045 235.729 75.0881" fill="#263238"/>
<path d="M237.054 82.0977C236.97 80.2151 237.54 77.3473 238.584 75.8224C238.741 75.5722 238.945 75.3586 239.184 75.1948C239.302 75.1116 239.438 75.0606 239.579 75.0464C239.721 75.0321 239.863 75.0551 239.994 75.1132C240.158 75.2363 240.291 75.3996 240.381 75.5889C240.471 75.7781 240.515 75.9876 240.51 76.1989C240.61 77.5475 240.349 78.8985 239.757 80.1009C239.164 81.3033 238.264 82.3097 237.156 83.0076" fill="#263238"/>
<path d="M238.992 89.5277C239.17 87.6606 239.823 85.8774 240.882 84.3631C240.987 84.1736 241.127 84.0079 241.294 83.8754C241.461 83.7429 241.651 83.6463 241.854 83.5913C242.484 83.5097 242.982 84.1811 243.12 84.8463C243.408 86.183 242.772 87.5322 242.04 88.6617C241.335 89.605 240.516 90.4487 239.604 91.1719" fill="#263238"/>
<path d="M240.744 94.7553C241.021 93.2848 241.605 91.8963 242.454 90.6889C242.636 90.428 242.872 90.2134 243.144 90.0614C243.281 89.9859 243.434 89.9506 243.589 89.9595C243.743 89.9683 243.892 90.0209 244.02 90.1116C244.416 90.4379 244.326 91.078 244.158 91.5674C243.632 93.2525 242.606 94.7185 241.23 95.7531" fill="#263238"/>
<path d="M239.964 92.6528C238.366 91.5585 236.674 90.6195 234.912 89.8477C234.785 89.7663 234.641 89.719 234.492 89.7103C234.344 89.7015 234.195 89.7315 234.06 89.7975C233.977 89.8739 233.915 89.973 233.882 90.0838C233.85 90.1945 233.847 90.3127 233.874 90.425C233.943 90.6592 234.062 90.8739 234.222 91.0526C234.998 91.9629 235.961 92.6783 237.038 93.1455C238.116 93.6127 239.28 93.8197 240.444 93.751" fill="#263238"/>
<path d="M238.009 85.7437L233.857 82.9136C233.476 82.6246 233.046 82.4118 232.591 82.286C232.366 82.2257 232.129 82.2294 231.905 82.2967C231.682 82.364 231.479 82.4925 231.319 82.6688C231.195 82.8793 231.13 83.1215 231.13 83.3685C231.13 83.6155 231.195 83.8577 231.319 84.0682C231.561 84.4943 231.891 84.8587 232.285 85.135C233.152 85.8805 234.14 86.4585 235.201 86.8419C236.275 87.1808 237.199 87.3314 238.201 86.8419" fill="#263238"/>
<path d="M236.118 77.8807C234.977 76.2348 233.439 74.9355 231.66 74.1155C231.373 73.9601 231.053 73.8844 230.73 73.8958C230.417 73.9728 230.139 74.1615 229.944 74.4294C229.749 74.6973 229.65 75.0278 229.662 75.3642C229.671 75.7422 229.756 76.114 229.911 76.4555C230.066 76.7971 230.288 77.1009 230.562 77.3472C231.114 77.8411 231.754 78.2145 232.446 78.4454C233.701 78.9172 235.019 79.1798 236.352 79.2236" fill="#263238"/>
<path d="M235.207 70.5887C234.247 68.4676 232.585 66.9867 230.761 65.6124C230.592 65.4399 230.383 65.3172 230.154 65.2565C229.925 65.1959 229.686 65.1996 229.459 65.2672C229.327 65.3453 229.216 65.457 229.136 65.5919C229.056 65.7268 229.01 65.8807 229.003 66.0391C228.987 66.3538 229.037 66.6683 229.147 66.9616C229.61 68.2867 230.436 69.4403 231.52 70.2793C232.605 71.1182 233.902 71.6055 235.249 71.6806" fill="#263238"/>
<path d="M234.985 66.7922C234.5 65.7015 234.116 64.5646 233.839 63.3973C233.56 62.2249 233.601 60.9942 233.959 59.8454C234.113 59.3555 234.396 58.9208 234.775 58.5903C234.967 58.427 235.195 58.3176 235.439 58.2726C235.682 58.2275 235.933 58.2484 236.167 58.3331C236.374 58.4352 236.557 58.5855 236.7 58.7725C236.844 58.9596 236.944 59.1784 236.995 59.4124C237.096 59.8797 237.116 60.3621 237.055 60.8369C236.863 63.1149 236.203 65.7819 234.985 66.8048" fill="#263238"/>
<path d="M266.173 59.7826C266.196 59.9172 266.208 60.0537 266.209 60.1905C266.209 60.4917 266.209 60.8871 266.251 61.3765C266.293 61.866 266.251 62.5187 266.251 63.2592C266.251 63.9996 266.251 64.8217 266.209 65.7379C266.161 67.5766 266.011 69.7667 265.759 72.1827C265.507 74.5987 265.099 77.2406 264.559 79.9892C264.019 82.7378 263.359 85.3232 262.657 87.6451C261.955 89.967 261.253 92.0379 260.593 93.7385C260.281 94.5982 259.957 95.3575 259.681 96.029C259.405 96.7004 259.159 97.284 258.943 97.7296L258.451 98.7964C258.399 98.9245 258.335 99.0465 258.259 99.1604C258.292 99.0262 258.339 98.8959 258.397 98.7713C258.511 98.4952 258.655 98.1437 258.841 97.6856C259.027 97.2276 259.273 96.6377 259.531 95.9599C259.789 95.2822 260.131 94.5229 260.401 93.6569C261.037 91.95 261.721 89.8917 262.399 87.5635C263.077 85.2354 263.719 82.6688 264.319 79.9139C264.919 77.159 265.255 74.5422 265.519 72.1388C265.783 69.7353 265.951 67.5515 266.029 65.7191C266.083 64.8029 266.089 63.9745 266.113 63.2466C266.137 62.5186 266.113 61.8911 266.113 61.364C266.113 60.8369 266.113 60.4792 266.113 60.178C266.119 60.0443 266.139 59.9118 266.173 59.7826Z" fill="#455A64"/>
<path d="M265.482 73.1368C265.452 71.5458 264.894 70.0153 263.904 68.8068C263.761 68.5833 263.567 68.4 263.34 68.2731C263.113 68.1461 262.859 68.0795 262.602 68.0789C261.924 68.1856 261.612 69.0327 261.588 69.7481C261.554 70.9653 261.939 72.1548 262.674 73.0992C263.303 74.0079 264.25 74.6194 265.308 74.7998" fill="#455A64"/>
<path d="M263.983 81.8091C264.073 79.9265 263.497 77.0649 262.453 75.5338C262.297 75.2825 262.093 75.0687 261.853 74.9062C261.735 74.8251 261.6 74.7758 261.46 74.7627C261.319 74.7495 261.178 74.773 261.049 74.8309C260.882 74.9516 260.747 75.1144 260.657 75.3043C260.567 75.4941 260.524 75.7047 260.533 75.9165C260.433 77.2643 260.693 78.6146 261.286 79.816C261.878 81.0175 262.779 82.0227 263.887 82.719" fill="#455A64"/>
<path d="M262.05 89.2452C261.868 87.3782 261.213 85.5958 260.154 84.0806C260.051 83.8897 259.911 83.7229 259.744 83.5902C259.577 83.4576 259.386 83.3618 259.182 83.3087C258.582 83.2208 258.054 83.8923 257.916 84.5638C257.634 85.8941 258.264 87.2496 259.002 88.3792C259.706 89.3217 260.523 90.1654 261.432 90.8893" fill="#455A64"/>
<path d="M260.293 94.4665C260.018 92.9973 259.433 91.6106 258.583 90.4063C258.405 90.144 258.171 89.929 257.899 89.7788C257.761 89.7027 257.607 89.6672 257.451 89.6761C257.296 89.6849 257.146 89.7378 257.017 89.829C256.627 90.1553 256.711 90.7954 256.879 91.2849C257.405 92.9699 258.431 94.4359 259.807 95.4705" fill="#455A64"/>
<path d="M261.072 92.3705C262.668 91.2775 264.357 90.3407 266.118 89.5717C266.244 89.4891 266.389 89.4413 266.538 89.4325C266.687 89.4237 266.835 89.4543 266.97 89.5215C267.053 89.5979 267.115 89.697 267.148 89.8077C267.181 89.9185 267.183 90.0366 267.156 90.149C267.089 90.3841 266.97 90.5992 266.808 90.7765C266.032 91.6876 265.07 92.404 263.992 92.8722C262.915 93.3405 261.751 93.5487 260.586 93.4812" fill="#455A64"/>
<path d="M263.029 85.4613L267.187 82.6312C267.568 82.3422 267.998 82.1294 268.453 82.0036C268.681 81.9196 268.928 81.9132 269.159 81.9856C269.39 82.0579 269.594 82.2052 269.74 82.4062C269.886 82.6072 269.967 82.8515 269.972 83.104C269.977 83.3564 269.905 83.604 269.767 83.8109C269.519 84.2311 269.19 84.5924 268.801 84.8715C267.935 85.6229 266.945 86.2015 265.879 86.5784C265.404 86.7889 264.894 86.8974 264.379 86.8974C263.863 86.8974 263.353 86.7889 262.879 86.5784" fill="#455A64"/>
<path d="M264.949 77.5921C266.09 75.949 267.626 74.6502 269.401 73.8269C269.686 73.6676 270.008 73.5917 270.331 73.6073C270.645 73.683 270.925 73.8711 271.121 74.1392C271.317 74.4072 271.417 74.7384 271.405 75.0757C271.395 75.4541 271.309 75.826 271.153 76.1675C270.997 76.5091 270.774 76.8126 270.499 77.0587C269.949 77.5506 269.31 77.9219 268.621 78.1506C267.367 78.6267 266.048 78.8915 264.715 78.935" fill="#455A64"/>
<path d="M265.83 70.3064C266.796 68.1853 268.458 66.7043 270.276 65.33C270.446 65.1576 270.656 65.0349 270.886 64.9744C271.115 64.9138 271.356 64.9174 271.584 64.9849C271.715 65.0624 271.826 65.1731 271.905 65.3069C271.985 65.4406 272.031 65.5932 272.04 65.7505C272.053 66.0677 272.002 66.3841 271.89 66.6792C271.425 68.0011 270.598 69.1507 269.513 69.9853C268.429 70.8198 267.133 71.3025 265.788 71.3732" fill="#455A64"/>
<path d="M266.059 66.5097C266.541 65.4179 266.925 64.2813 267.205 63.1148C267.485 61.9422 267.441 60.7106 267.079 59.5629C266.925 59.0724 266.642 58.6373 266.263 58.3078C266.071 58.1439 265.842 58.0346 265.598 57.9906C265.354 57.9467 265.104 57.9695 264.871 58.0568C264.664 58.1601 264.482 58.3108 264.339 58.4976C264.196 58.6845 264.094 58.9028 264.043 59.1362C263.945 59.6039 263.924 60.0858 263.983 60.5607C264.175 62.8324 264.835 65.5057 266.059 66.5285" fill="#455A64"/>
<path d="M229.578 99.1478V104.632C229.577 104.916 229.63 105.196 229.733 105.458C229.836 105.72 229.988 105.958 230.179 106.159C230.37 106.359 230.597 106.518 230.847 106.627C231.097 106.735 231.365 106.791 231.636 106.791H267.492C268.04 106.791 268.565 106.564 268.952 106.159C269.339 105.754 269.556 105.205 269.556 104.632V99.1541L229.578 99.1478Z" fill="#B36370"/>
<g opacity="0.4">
<path d="M232.688 106.785L232.981 108.53L266.066 110.996L266.905 106.785H232.688Z" fill="black"/>
</g>
<path d="M123.826 296.062L124.51 232.926C150.808 227.128 161.11 224.398 197.896 235.436C197.896 235.436 201.274 263.568 201.28 266.035C201.28 272.31 190.084 327.878 190.084 327.878L195.035 351.969C168.558 353.563 146.332 361.916 119.884 351.969L126.304 328.637L123.826 296.062Z" fill="#C78976"/>
<path d="M131.838 260.205C131.838 260.205 151.746 258.479 168.54 260.205C177.356 261.074 185.961 263.535 193.974 267.478C195.866 268.423 197.406 269.996 198.354 271.951C199.303 273.907 199.606 276.136 199.218 278.29L197.598 325.519L203.5 361.035L187 362.506L168.54 361.035L151.107 363.837L131.838 362.506L119.052 361.035L112 357.509L119.052 329.315C119.052 329.315 120.414 285.049 120.948 276.013C121.482 266.976 127.674 260.412 131.838 260.205Z" fill="#EBEBEB"/>
<path d="M191.182 265.47C191.19 265.553 191.19 265.637 191.182 265.721L191.152 266.443C191.11 267.07 191.056 268.024 190.99 269.216C190.846 271.639 190.642 275.121 190.39 279.414C189.946 288.023 189.346 299.953 190.12 313.087C190.504 319.657 191.284 325.883 191.788 331.562C192.046 334.404 192.244 337.109 192.346 339.651C192.448 342.192 192.424 344.558 192.412 346.71C192.4 348.863 192.502 350.814 192.502 352.534C192.518 354.001 192.446 355.469 192.286 356.927C192.161 358.173 191.934 359.405 191.608 360.61C191.612 360.528 191.624 360.446 191.644 360.366C191.674 360.19 191.722 359.958 191.776 359.656C191.884 359.029 192.052 358.113 192.166 356.914C192.305 355.455 192.36 353.988 192.328 352.521C192.328 350.808 192.208 348.863 192.19 346.698C192.172 344.533 192.19 342.18 192.088 339.651C191.986 337.122 191.764 334.417 191.488 331.581C190.972 325.933 190.18 319.657 189.796 313.1C189.022 299.921 189.658 287.998 190.156 279.389C190.42 275.084 190.672 271.601 190.852 269.191C190.942 268.005 191.02 267.076 191.068 266.424C191.098 266.122 191.116 265.884 191.134 265.702C191.146 265.624 191.162 265.546 191.182 265.47Z" fill="#263238"/>
<path d="M150.539 327.238C152.221 329.939 154.445 332.226 157.055 333.94C159.707 335.559 162.947 336.3 165.905 335.452C167.867 334.888 169.619 333.677 171.599 333.193C173.999 332.603 176.585 333.156 178.913 334.072C181.241 334.988 183.437 336.268 185.765 337.21C189.954 338.879 194.485 339.387 198.917 338.684C199.263 338.671 199.603 338.581 199.914 338.42C200.224 338.259 200.498 338.03 200.717 337.749C200.943 337.236 200.986 336.655 200.837 336.111C200.218 333.346 198.721 330.881 196.589 329.121C194.46 327.392 192.117 325.974 189.623 324.904C184.997 322.732 180.023 320.843 174.983 321.402C170.495 321.904 166.427 324.295 162.095 325.638C158.46 326.761 154.653 327.138 150.881 326.749L151.079 327.514" fill="#E0E0E0"/>
<path d="M179.369 292.203C179.309 292.272 178.769 291.82 178.115 291.199C177.461 290.577 177.017 290.025 177.071 289.944C177.547 290.19 177.973 290.531 178.325 290.948C178.961 291.582 179.459 292.14 179.369 292.203Z" fill="#263238"/>
<path d="M180.364 290.841C180.316 290.916 179.764 290.609 179.128 290.151C178.492 289.693 178.024 289.266 178.072 289.191C178.12 289.115 178.672 289.429 179.308 289.881C179.944 290.333 180.412 290.785 180.364 290.841Z" fill="#263238"/>
<path d="M180.935 289.216C180.935 289.304 180.443 289.216 179.891 289.072C179.339 288.927 178.907 288.701 178.931 288.613C178.955 288.525 179.423 288.613 179.975 288.758C180.527 288.902 180.959 289.128 180.935 289.216Z" fill="#263238"/>
<path d="M133.631 346.183C133.571 346.121 133.883 345.694 134.189 345.123C134.495 344.552 134.693 344.062 134.789 344.087C134.885 344.113 134.789 344.677 134.471 345.286C134.153 345.895 133.691 346.252 133.631 346.183Z" fill="#263238"/>
<path d="M135.514 346.497C135.442 346.453 135.604 346.014 135.886 345.518C136.168 345.022 136.45 344.658 136.522 344.702C136.594 344.746 136.432 345.185 136.15 345.681C135.868 346.177 135.586 346.541 135.514 346.497Z" fill="#263238"/>
<path d="M137.499 347.238C137.415 347.238 137.313 346.78 137.271 346.196C137.229 345.612 137.271 345.142 137.355 345.135C137.439 345.129 137.547 345.594 137.583 346.177C137.619 346.761 137.589 347.231 137.499 347.238Z" fill="#263238"/>
<path d="M174.91 344.69C174.838 344.734 174.556 344.363 174.274 343.868C173.992 343.372 173.836 342.933 173.908 342.889C173.98 342.845 174.268 343.209 174.544 343.705C174.82 344.2 174.988 344.64 174.91 344.69Z" fill="#263238"/>
<path d="M176.487 343.341C176.421 343.391 176.104 343.064 175.792 342.606C175.48 342.148 175.276 341.74 175.342 341.69C175.408 341.64 175.726 341.96 176.044 342.418C176.362 342.876 176.559 343.284 176.487 343.341Z" fill="#263238"/>
<path d="M177.778 342.89C177.736 342.965 177.28 342.758 176.764 342.425C176.248 342.092 175.858 341.766 175.918 341.671C175.978 341.577 176.416 341.797 176.932 342.13C177.448 342.463 177.826 342.814 177.778 342.89Z" fill="#263238"/>
<path d="M196.703 351.58C196.655 351.662 196.463 351.624 196.265 351.499C196.067 351.373 195.941 351.21 195.983 351.134C196.025 351.059 196.223 351.091 196.421 351.216C196.619 351.342 196.745 351.505 196.703 351.58Z" fill="#263238"/>
<path d="M197.272 350.231C197.236 350.313 196.882 350.231 196.486 350.005C196.09 349.779 195.802 349.566 195.838 349.484C195.874 349.402 196.228 349.484 196.624 349.71C197.02 349.936 197.314 350.156 197.272 350.231Z" fill="#263238"/>
<path d="M197.992 349.635C197.992 349.723 197.476 349.692 196.882 349.572C196.288 349.453 195.826 349.271 195.838 349.183C195.85 349.095 196.354 349.126 196.948 349.246C197.542 349.365 198.01 349.547 197.992 349.635Z" fill="#263238"/>
<path d="M117.148 343.485C117.148 343.573 116.728 343.548 116.248 343.422C115.768 343.297 115.408 343.127 115.426 343.039C115.444 342.951 115.852 342.983 116.326 343.102C116.8 343.221 117.172 343.397 117.148 343.485Z" fill="#263238"/>
<path d="M117.995 342.638C117.554 342.637 117.119 342.532 116.723 342.331C116.294 342.217 115.896 342.002 115.559 341.703C115.999 341.696 116.435 341.799 116.831 342.004C117.503 342.299 118.025 342.551 117.995 342.638Z" fill="#263238"/>
<path d="M118.15 341.539C118.102 341.615 117.616 341.376 117.064 341C116.512 340.623 116.098 340.266 116.146 340.19C116.194 340.115 116.68 340.353 117.232 340.724C117.784 341.094 118.198 341.464 118.15 341.539Z" fill="#263238"/>
<path d="M167.35 258.209C167.835 259.079 168.132 260.049 168.22 261.052C167.932 260.642 167.727 260.174 167.62 259.678C167.428 259.215 167.335 258.714 167.35 258.209Z" fill="#263238"/>
<path d="M169.612 257.889C169.765 258.37 169.818 258.879 169.768 259.383C169.817 259.889 169.764 260.4 169.612 260.883C169.457 260.4 169.404 259.889 169.456 259.383C169.403 258.879 169.457 258.369 169.612 257.889Z" fill="#263238"/>
<path d="M171.365 259.094C171.449 259.094 171.425 259.628 171.311 260.249C171.197 260.87 171.059 261.347 170.945 261.347C170.831 261.347 170.885 260.814 170.999 260.192C171.113 259.571 171.275 259.075 171.365 259.094Z" fill="#263238"/>
<path d="M191.614 353.005L191.422 353.08L190.864 353.274C190.366 353.444 189.634 353.67 188.686 353.958C186.79 354.536 184.024 355.308 180.574 356.092C177.124 356.876 172.972 357.648 168.334 358.219C163.303 358.883 158.229 359.137 153.16 358.979C150.534 358.882 147.915 358.62 145.318 358.194C142.904 357.777 140.514 357.215 138.16 356.512C134.187 355.295 130.293 353.811 126.502 352.07C123.262 350.595 120.682 349.308 118.906 348.417L116.86 347.382L116.332 347.099C116.272 347.071 116.213 347.038 116.158 346.999L116.344 347.068L116.884 347.319L118.954 348.304C120.754 349.158 123.346 350.413 126.592 351.856C130.384 353.561 134.273 355.018 138.238 356.217C140.581 356.914 142.961 357.467 145.366 357.874C147.949 358.298 150.554 358.558 153.166 358.652C158.219 358.811 163.275 358.567 168.292 357.924C172.924 357.366 177.07 356.613 180.52 355.866C183.97 355.119 186.742 354.373 188.644 353.839L190.84 353.212L191.41 353.048C191.477 353.027 191.545 353.012 191.614 353.005Z" fill="#B36370"/>
<path d="M191.164 336.72C191.107 336.746 191.046 336.763 190.984 336.77L190.45 336.871L188.392 337.229C187.498 337.392 186.4 337.567 185.122 337.737C183.844 337.906 182.398 338.132 180.784 338.289L178.258 338.534C177.376 338.628 176.458 338.684 175.51 338.76C173.608 338.935 171.574 339.017 169.432 339.124C165.148 339.274 160.432 339.287 155.494 339.055C150.556 338.822 145.858 338.352 141.598 337.781C139.474 337.467 137.452 337.185 135.598 336.827C134.656 336.657 133.75 336.507 132.88 336.331L130.384 335.81C128.788 335.503 127.384 335.133 126.112 334.838C124.84 334.543 123.778 334.26 122.902 334.016L120.886 333.457L120.364 333.3C120.304 333.289 120.245 333.268 120.19 333.237L120.37 333.269L120.904 333.394L122.932 333.89C123.814 334.122 124.888 334.386 126.148 334.662C127.408 334.938 128.836 335.289 130.426 335.584L132.922 336.086C133.792 336.256 134.722 336.394 135.64 336.563C137.512 336.908 139.528 337.191 141.64 337.486C145.888 338.038 150.574 338.502 155.506 338.741C160.438 338.979 165.148 338.967 169.426 338.835C171.562 338.735 173.59 338.666 175.492 338.502C176.44 338.433 177.358 338.383 178.234 338.295L180.766 338.044C182.38 337.906 183.832 337.693 185.11 337.542C186.388 337.392 187.51 337.235 188.38 337.09L190.444 336.796L190.984 336.72H191.164Z" fill="#B36370"/>
<path d="M147.305 322.218C146.814 322.211 146.326 322.137 145.853 321.998C144.702 321.743 143.568 321.412 142.457 321.007C141.342 320.603 140.252 320.13 139.193 319.588C138.743 319.385 138.318 319.126 137.927 318.817C138.395 318.963 138.85 319.15 139.289 319.375C140.117 319.739 141.263 320.228 142.559 320.699C143.855 321.17 145.043 321.527 145.907 321.772C146.384 321.88 146.851 322.029 147.305 322.218Z" fill="#B36370"/>
<path d="M189.76 301.076C189.62 301.128 189.475 301.166 189.328 301.189L188.074 301.44C187.528 301.553 186.874 301.679 186.082 301.798C185.29 301.917 184.414 302.08 183.43 302.193C181.462 302.463 179.11 302.689 176.488 302.821C173.866 302.952 170.98 302.996 167.956 302.89C164.932 302.783 162.052 302.507 159.442 302.174C156.832 301.842 154.51 301.421 152.566 301.007C151.588 300.819 150.718 300.593 149.95 300.411C149.182 300.229 148.522 300.06 147.988 299.909L146.758 299.558C146.611 299.527 146.468 299.478 146.332 299.413C146.48 299.426 146.627 299.453 146.77 299.495L148.018 299.783C148.558 299.915 149.218 300.072 149.986 300.235C150.754 300.398 151.63 300.605 152.608 300.775C154.552 301.164 156.88 301.541 159.478 301.879C162.076 302.218 164.95 302.444 167.968 302.563C170.986 302.683 173.86 302.632 176.476 302.519C179.092 302.407 181.438 302.181 183.406 301.936C184.39 301.842 185.272 301.697 186.052 301.591C186.832 301.484 187.504 301.384 188.05 301.29L189.316 301.095C189.463 301.074 189.612 301.068 189.76 301.076Z" fill="#B36370"/>
<path d="M190.702 278.918C190.58 278.947 190.455 278.96 190.33 278.956L189.256 278.994L185.308 279.094C181.978 279.17 177.37 279.289 172.282 279.295C167.194 279.301 162.586 279.119 159.256 278.868C157.594 278.742 156.256 278.617 155.32 278.51L154.252 278.385C154.128 278.374 154.005 278.351 153.886 278.315C154.009 278.299 154.134 278.299 154.258 278.315L155.332 278.385C156.262 278.454 157.606 278.542 159.268 278.636C162.598 278.824 167.2 278.969 172.282 278.969L185.308 278.862C186.976 278.862 188.308 278.862 189.256 278.862H190.33C190.455 278.87 190.579 278.888 190.702 278.918Z" fill="#B36370"/>
<path d="M199.09 291.023C198.624 290.973 198.164 290.875 197.716 290.728C196.876 290.515 195.718 290.226 194.428 289.95C193.138 289.674 191.968 289.46 191.116 289.322C190.651 289.271 190.191 289.175 189.742 289.034C190.211 288.991 190.683 289.013 191.146 289.096C192.271 289.217 193.388 289.399 194.494 289.642C195.79 289.919 196.948 290.27 197.776 290.515C198.233 290.624 198.675 290.795 199.09 291.023Z" fill="#B36370"/>
<path d="M199.475 310.119C197.903 310.266 196.323 310.299 194.747 310.22C193.167 310.257 191.588 310.182 190.019 309.994C191.593 309.855 193.174 309.821 194.753 309.893C196.33 309.863 197.907 309.938 199.475 310.119Z" fill="#B36370"/>
<path d="M201.658 343.68C201.209 343.829 200.747 343.93 200.278 343.981C199.426 344.131 198.244 344.351 196.954 344.608C195.664 344.866 194.5 345.192 193.654 345.411C193.207 345.561 192.747 345.664 192.28 345.719C192.697 345.489 193.138 345.312 193.594 345.192C194.677 344.833 195.776 344.533 196.888 344.294C197.998 344.047 199.12 343.858 200.248 343.73C200.715 343.655 201.188 343.638 201.658 343.68Z" fill="#B36370"/>
<path d="M197.644 235.442C197.644 235.442 209.824 237.708 213.07 249.028C216.316 260.349 224.338 315.848 223.726 325.098C223.534 328.048 222.298 330.777 221.086 331.781C215.32 336.532 207.628 340.636 195.748 336.494C186.558 333.17 177.926 328.352 170.17 322.218L177.772 311.418C177.772 311.418 198.454 316.821 203.326 315.127L199.258 291.513L197.644 235.442Z" fill="#C78976"/>
<path d="M164.836 307.213L165.856 310.389C165.856 310.389 168.748 311.016 169.204 311.983C169.66 312.949 171.004 319.137 171.004 319.137L151.996 324.226L149.866 318.503L150.934 315.717L149.992 312.271C149.992 312.271 158.368 307.439 164.836 307.213Z" fill="#B36370"/>
<path d="M165.856 310.389C165.856 310.439 164.998 310.621 163.612 310.966C162.226 311.311 160.324 311.851 158.254 312.554C156.184 313.257 154.342 313.997 153.022 314.568C152.323 314.905 151.608 315.205 150.88 315.466C151.043 315.33 151.222 315.218 151.414 315.133C151.762 314.932 152.284 314.669 152.938 314.355C156.345 312.752 159.907 311.54 163.564 310.74C164.266 310.59 164.836 310.495 165.238 310.439C165.441 310.398 165.649 310.382 165.856 310.389Z" fill="#263238"/>
<path d="M165.659 309.667C165.659 309.711 164.801 309.893 163.415 310.238C162.029 310.583 160.127 311.123 158.057 311.832C155.987 312.541 154.145 313.275 152.825 313.84C151.505 314.405 150.701 314.788 150.683 314.744C150.842 314.602 151.023 314.488 151.217 314.405C151.565 314.204 152.087 313.941 152.741 313.627C154.442 312.825 156.185 312.121 157.961 311.518C159.732 310.91 161.535 310.407 163.361 310.012C164.063 309.868 164.633 309.767 165.035 309.717C165.239 309.668 165.449 309.651 165.659 309.667Z" fill="#263238"/>
<path d="M165.46 308.889C165.46 308.939 164.602 309.115 163.216 309.466C161.83 309.818 159.928 310.345 157.858 311.054C155.788 311.763 153.946 312.497 152.626 313.062C151.306 313.627 150.502 314.01 150.484 313.966C150.646 313.826 150.826 313.712 151.018 313.627C151.366 313.426 151.888 313.162 152.542 312.849C154.244 312.046 155.987 311.342 157.762 310.74C159.533 310.13 161.336 309.63 163.162 309.24C163.864 309.09 164.434 308.996 164.836 308.939C165.041 308.89 165.251 308.873 165.46 308.889Z" fill="#263238"/>
<path d="M165.107 308.048C165.107 308.098 164.255 308.274 162.881 308.632C161.507 308.989 159.623 309.535 157.583 310.257C155.543 310.979 153.719 311.738 152.411 312.309C151.103 312.88 150.305 313.256 150.287 313.213C150.448 313.075 150.625 312.961 150.815 312.874C151.163 312.679 151.679 312.409 152.321 312.096C154.005 311.288 155.727 310.572 157.481 309.949C159.233 309.321 161.021 308.806 162.833 308.406C163.529 308.249 164.099 308.155 164.489 308.098C164.693 308.058 164.9 308.041 165.107 308.048Z" fill="#263238"/>
<path d="M157.217 315.717L158.615 319.475L168.095 316.338L166.463 312.177L157.217 315.717Z" fill="#E0E0E0"/>
<path d="M170.86 308.374C170.86 308.374 174.46 307.602 176.002 309.265C177.544 310.928 181.072 314.386 181.072 314.386L176.002 324.031H174.148C174.148 324.031 173.086 325.675 172.348 326.008L170.86 328.675L166.726 331.223L156.118 331.781L149.014 326.899L146.896 320.574C146.896 320.574 147.106 320.354 147.958 320.8L147.742 318.139C147.742 318.139 149.866 316.808 151.342 318.804L150.916 316.03C150.916 316.03 152.194 314.92 154.738 317.58L161.308 320.8L167.674 319.024L170.014 315.635C170.014 315.635 165.16 318.358 163.978 317.361C162.796 316.363 162.478 314.035 162.478 314.035C162.478 314.035 168.736 308.55 170.86 308.374Z" fill="#C78976"/>
<path d="M173.946 313.231C173.946 313.275 173.418 313.514 172.596 314.01C171.774 314.505 170.682 315.265 169.416 316.03C168.34 316.719 167.152 317.195 165.912 317.436C165.533 317.5 165.148 317.519 164.766 317.492C164.624 317.498 164.483 317.472 164.352 317.417C164.352 317.361 164.952 317.417 165.87 317.21C167.066 316.912 168.21 316.418 169.26 315.748C170.508 314.988 171.624 314.235 172.494 313.802C172.945 313.531 173.435 313.338 173.946 313.231Z" fill="#AA6550"/>
<path d="M165.808 324.822C165.588 324.878 165.366 324.92 165.142 324.948C164.551 325.097 163.971 325.292 163.408 325.531C162.554 325.939 161.61 326.095 160.678 325.983C160.141 325.852 159.626 325.641 159.148 325.355L157.624 324.502L154.69 322.826C153.85 322.423 153.074 321.89 152.386 321.245C151.98 320.744 151.674 320.164 151.486 319.538C151.4 319.319 151.339 319.089 151.306 318.854C151.426 319.051 151.525 319.261 151.6 319.482C151.822 320.068 152.143 320.608 152.548 321.076C153.238 321.678 154.005 322.177 154.828 322.557L157.774 324.207L159.292 325.067C159.741 325.346 160.226 325.557 160.732 325.694C161.616 325.81 162.514 325.681 163.336 325.318C163.919 325.094 164.522 324.93 165.136 324.828C165.357 324.783 165.585 324.781 165.808 324.822Z" fill="#AA6550"/>
<path d="M164.518 328.675C164.263 328.709 164.007 328.725 163.75 328.725C163.055 328.807 162.365 328.935 161.686 329.108C160.664 329.41 159.6 329.52 158.542 329.434C157.306 329.265 156.208 328.405 155.086 327.633L151.906 325.406C151.02 324.821 150.169 324.182 149.356 323.492C148.821 322.97 148.41 322.326 148.156 321.609C148.043 321.362 147.965 321.1 147.922 320.831C148.052 321.065 148.167 321.308 148.264 321.559C148.547 322.217 148.956 322.809 149.464 323.297C150.124 323.887 151.06 324.439 152.032 325.13L155.224 327.338C156.352 328.123 157.408 328.945 158.554 329.108C159.578 329.205 160.611 329.12 161.608 328.857C162.299 328.7 163.001 328.605 163.708 328.575C163.908 328.571 164.109 328.582 164.308 328.606C164.458 328.65 164.518 328.663 164.518 328.675Z" fill="#AA6550"/>
<path d="M175.93 320.197C175.78 320.662 175.579 321.106 175.33 321.521C174.904 322.318 174.292 323.404 173.572 324.559C172.852 325.713 172.156 326.742 171.634 327.47C171.376 327.884 171.072 328.263 170.728 328.6C170.927 328.156 171.17 327.736 171.454 327.345L173.308 324.383C173.992 323.278 174.604 322.274 175.108 321.408C175.339 320.975 175.615 320.569 175.93 320.197Z" fill="#AA6550"/>
<path d="M182.308 324.213C181.889 324.381 181.452 324.493 181.006 324.546C180.19 324.703 179.056 324.867 177.802 324.973C176.548 325.08 175.402 325.086 174.574 325.067C174.125 325.086 173.675 325.044 173.236 324.942C173.236 324.848 175.276 324.848 177.778 324.647C180.28 324.446 182.29 324.1 182.308 324.213Z" fill="#AA6550"/>
<path d="M216.058 311.939C216.058 311.976 215.53 311.976 214.594 312.102C213.268 312.281 211.958 312.568 210.676 312.962C209.044 313.439 207.142 314.141 204.988 314.844C202.665 315.638 200.23 316.013 197.788 315.955C195.344 315.857 192.914 315.525 190.528 314.963C188.332 314.474 186.376 313.934 184.732 313.476L180.856 312.384L179.8 312.089C179.673 312.063 179.55 312.021 179.434 311.964C179.561 311.975 179.687 311.996 179.812 312.027L180.88 312.259C181.81 312.478 183.142 312.817 184.792 313.25C186.442 313.683 188.392 314.198 190.588 314.669C192.956 315.208 195.365 315.529 197.788 315.629C200.21 315.687 202.625 315.324 204.934 314.556C207.076 313.897 208.996 313.213 210.64 312.761C211.935 312.385 213.261 312.131 214.6 312.001C214.964 311.961 215.331 311.944 215.698 311.951C215.817 311.939 215.937 311.935 216.058 311.939Z" fill="#AA6550"/>
<path d="M194.152 258.128C194.315 258.202 194.467 258.302 194.602 258.423C194.994 258.72 195.36 259.054 195.694 259.42C196.198 259.956 196.65 260.543 197.044 261.171C197.527 261.944 197.929 262.769 198.244 263.631C198.542 264.498 198.757 265.393 198.886 266.304C198.978 267.051 199.004 267.805 198.964 268.557C198.938 269.062 198.871 269.564 198.766 270.057C198.74 270.24 198.688 270.418 198.61 270.584C198.55 270.584 198.718 269.806 198.742 268.545C198.754 267.81 198.705 267.075 198.598 266.348C198.46 265.461 198.243 264.589 197.95 263.744C197.64 262.906 197.256 262.099 196.804 261.334C196.427 260.713 196.001 260.126 195.532 259.577C194.722 258.642 194.116 258.209 194.152 258.128Z" fill="#AA6550"/>
<path d="M202.57 340.78C202.618 340.856 202.18 341.251 201.586 341.671C200.992 342.092 200.47 342.362 200.422 342.299C200.374 342.236 200.818 341.822 201.412 341.408C202.006 340.994 202.522 340.705 202.57 340.78Z" fill="#263238"/>
<path d="M202.576 343.039C202.612 343.121 202.192 343.391 201.634 343.636C201.076 343.881 200.602 344.019 200.572 343.937C200.542 343.856 200.956 343.586 201.514 343.309C202.072 343.033 202.54 342.958 202.576 343.039Z" fill="#263238"/>
<path d="M203.59 343.811C203.59 343.893 203.194 344.132 202.642 344.345C202.09 344.559 201.616 344.653 201.586 344.565C201.556 344.477 201.982 344.245 202.534 344.037C203.086 343.83 203.56 343.723 203.59 343.811Z" fill="#263238"/>
<path d="M172.624 157.082L168.059 156.549L150.659 163.897C149.441 163.966 148.293 164.51 147.442 165.423C146.591 166.335 146.098 167.549 146.062 168.823L146.212 228.213C146.212 232.242 146.963 235.744 149.291 238.938L151.739 242.32C157.319 250.026 168.797 249.392 173.219 240.902C173.477 240.417 173.679 239.901 173.819 239.364C173.926 238.926 174.012 238.482 174.076 238.034C174.558 235.09 174.741 232.101 174.623 229.117C174.935 223.871 175.037 221.718 175.037 221.762C175.037 221.806 185.711 220.507 188.597 206.149C190.031 199.02 190.253 187.223 190.133 177.565C190.019 168.874 182.89 157.07 172.624 157.082Z" fill="#C78976"/>
<path d="M174.79 198.048C174.79 197.935 175.99 197.784 177.916 197.627C178.408 197.596 178.87 197.521 178.972 197.175C179.036 196.652 178.948 196.121 178.72 195.65C178.318 194.395 177.904 193.078 177.466 191.703C175.732 186.055 174.502 181.462 174.718 181.393C174.934 181.324 176.518 185.823 178.252 191.433L179.452 195.406C179.729 196.035 179.785 196.746 179.608 197.414C179.53 197.591 179.415 197.746 179.27 197.868C179.125 197.99 178.956 198.075 178.774 198.117C178.501 198.182 178.22 198.208 177.94 198.192C175.996 198.217 174.796 198.161 174.79 198.048Z" fill="#263238"/>
<path d="M174.977 221.706C168.47 221.471 162.154 219.351 156.731 215.581C156.731 215.581 160.901 225.822 174.791 225.195L174.977 221.706Z" fill="#AA6550"/>
<path d="M173.758 202.811C173.419 202.316 172.967 201.92 172.442 201.659C171.917 201.398 171.338 201.28 170.758 201.317C170.335 201.334 169.92 201.44 169.537 201.628C169.155 201.817 168.813 202.085 168.532 202.415C168.262 202.735 168.093 203.132 168.046 203.555C167.999 203.978 168.076 204.406 168.268 204.781C168.558 205.155 168.947 205.431 169.388 205.573C169.828 205.715 170.298 205.717 170.74 205.578C171.654 205.289 172.506 204.816 173.248 204.185C173.469 204.035 173.663 203.844 173.818 203.62C173.892 203.514 173.935 203.387 173.941 203.255C173.947 203.124 173.917 202.993 173.854 202.88" fill="#AA6550"/>
<path d="M169.114 199.133C169.426 199.133 169.33 201.292 171.022 202.898C172.714 204.505 174.934 204.405 174.94 204.706C174.94 204.844 174.424 205.101 173.494 205.082C172.282 205.033 171.125 204.54 170.224 203.689C169.367 202.88 168.84 201.756 168.754 200.551C168.718 199.635 168.976 199.114 169.114 199.133Z" fill="#263238"/>
<path d="M170.122 177.377C169.852 177.879 168.01 177.295 165.76 177.188C163.51 177.082 161.62 177.402 161.404 176.868C161.308 176.617 161.698 176.165 162.502 175.776C163.564 175.309 164.714 175.101 165.865 175.168C167.016 175.234 168.137 175.573 169.144 176.159C169.9 176.63 170.242 177.138 170.122 177.377Z" fill="#263238"/>
<path d="M187.799 179.347C187.445 179.78 186.149 179.24 184.577 179.14C183.005 179.04 181.643 179.291 181.361 178.801C181.235 178.563 181.469 178.117 182.069 177.722C182.879 177.251 183.804 177.041 184.728 177.119C185.651 177.198 186.532 177.56 187.259 178.161C187.799 178.657 187.955 179.14 187.799 179.347Z" fill="#263238"/>
<path d="M185.027 187.229C185.009 187.723 184.807 188.19 184.464 188.529C184.12 188.868 183.663 189.053 183.191 189.042C182.958 189.053 182.726 189.014 182.509 188.928C182.291 188.842 182.092 188.711 181.924 188.543C181.756 188.374 181.622 188.173 181.53 187.949C181.439 187.725 181.391 187.485 181.391 187.241C181.406 186.746 181.608 186.278 181.951 185.937C182.295 185.597 182.753 185.411 183.227 185.422C183.459 185.413 183.691 185.454 183.908 185.541C184.125 185.627 184.324 185.759 184.492 185.928C184.659 186.096 184.793 186.298 184.885 186.522C184.977 186.745 185.025 186.986 185.027 187.229Z" fill="#263238"/>
<path d="M187.691 183.577C187.451 183.809 186.131 182.679 184.187 182.579C182.243 182.479 180.767 183.426 180.587 183.169C180.491 183.05 180.743 182.617 181.385 182.177C182.246 181.621 183.248 181.35 184.259 181.399C185.271 181.452 186.242 181.839 187.031 182.504C187.625 183.012 187.805 183.47 187.691 183.577Z" fill="#263238"/>
<path d="M166.391 186.47C166.414 186.949 166.257 187.418 165.953 187.777C165.649 188.136 165.222 188.356 164.765 188.39C164.542 188.418 164.316 188.399 164.101 188.334C163.885 188.269 163.684 188.159 163.51 188.012C163.336 187.865 163.191 187.682 163.085 187.476C162.979 187.269 162.914 187.042 162.893 186.808C162.87 186.33 163.026 185.861 163.329 185.501C163.631 185.141 164.056 184.919 164.513 184.882C164.736 184.855 164.962 184.875 165.178 184.94C165.394 185.006 165.596 185.116 165.77 185.264C165.945 185.411 166.09 185.594 166.197 185.801C166.303 186.008 166.369 186.236 166.391 186.47Z" fill="#263238"/>
<path d="M168.736 182.278C168.532 182.522 167.158 181.55 165.268 181.65C163.378 181.751 162.028 182.78 161.812 182.541C161.71 182.441 161.914 182.002 162.502 181.512C163.3 180.89 164.261 180.539 165.256 180.508C166.24 180.46 167.213 180.746 168.028 181.324C168.658 181.744 168.844 182.171 168.736 182.278Z" fill="#263238"/>
<path d="M189.617 198.211C189.617 198.211 191.537 193.975 194.063 186.639C196.589 179.303 192.941 166.558 190.853 162.341C189.684 159.932 188.224 157.69 186.509 155.67C186.509 155.67 186.329 142.367 184.637 138.595C182.945 134.824 165.503 123.402 160.211 122.618C154.919 121.834 144.611 126.12 144.611 126.12C144.611 126.12 137.129 139.674 133.919 145.887C130.709 152.1 132.329 168.848 132.329 168.848C132.329 168.848 124.307 182.761 124.559 184.901C124.811 187.041 132.179 195.726 132.179 195.726C132.179 195.726 129.035 210.473 131.015 212.205C132.995 213.937 138.299 215.581 138.299 215.581L146.159 208.791C146.159 208.791 146.351 203.52 146.159 199.133C145.937 194.609 150.053 185.083 149.933 185.422C149.933 185.422 155.933 171.71 159.389 169.049C162.845 166.389 170.261 156.63 170.261 156.63C170.261 156.63 183.299 163.703 185.339 168.472C187.379 173.241 190.085 177.176 189.587 185.415C189.272 189.675 189.282 193.953 189.617 198.211Z" fill="#B36370"/>
<path d="M136.961 207.705C136.907 207.636 137.309 207.203 137.861 206.733C138.413 206.262 138.905 205.942 138.959 206.011C139.013 206.08 138.611 206.519 138.059 206.99C137.507 207.461 137.015 207.774 136.961 207.705Z" fill="#263238"/>
<path d="M136.474 206.224C136.42 206.155 136.72 205.779 137.152 205.377C137.584 204.976 137.98 204.706 138.04 204.75C138.1 204.794 137.794 205.195 137.362 205.597C136.93 205.998 136.534 206.287 136.474 206.224Z" fill="#263238"/>
<path d="M135.688 204.06C135.688 203.972 136.156 203.827 136.768 203.733C137.38 203.639 137.878 203.633 137.896 203.733C137.914 203.834 137.422 203.972 136.81 204.06C136.198 204.148 135.7 204.154 135.688 204.06Z" fill="#263238"/>
<path d="M173.549 127.375C173.609 127.438 173.381 127.789 173.039 128.159C172.697 128.53 172.367 128.787 172.301 128.718C172.235 128.649 172.469 128.304 172.811 127.933C173.153 127.563 173.489 127.312 173.549 127.375Z" fill="#263238"/>
<path d="M172.318 126.251C172.396 126.295 172.276 126.697 172.054 127.161C171.832 127.626 171.58 127.958 171.508 127.921C171.436 127.883 171.55 127.469 171.772 127.011C171.994 126.553 172.258 126.214 172.318 126.251Z" fill="#263238"/>
<path d="M170.981 124.733C171.062 125.197 171.036 125.675 170.903 126.126C170.875 126.595 170.744 127.05 170.519 127.456C170.444 126.992 170.471 126.516 170.597 126.063C170.624 125.595 170.755 125.139 170.981 124.733Z" fill="#263238"/>
<g opacity="0.3">
<path d="M146.5 206.463C146.497 205.414 146.278 204.378 145.858 203.426C145.192 202.089 143.986 201.16 142.99 200.068C140.542 197.389 139.54 194.126 139.462 190.417C139.384 186.708 140.812 182.353 142.216 178.952C136.588 187.279 137.158 197.527 140.818 206.752C141.149 207.764 141.702 208.682 142.432 209.431C142.804 209.798 143.271 210.042 143.776 210.131C144.28 210.221 144.798 210.152 145.264 209.933C146.326 209.299 146.56 207.768 146.5 206.463Z" fill="black"/>
</g>
<path d="M148.738 193.172C148.786 192.099 147.718 189.501 146.71 189.281C144.022 188.697 139.12 188.653 138.73 195.87C138.196 205.716 147.73 204.248 147.79 203.965C147.85 203.683 148.57 196.887 148.738 193.172Z" fill="#C78976"/>
<path d="M145.115 200.062C145.079 200.031 144.947 200.175 144.665 200.288C144.273 200.431 143.845 200.415 143.465 200.244C142.493 199.805 141.743 198.104 141.791 196.322C141.818 195.476 142.022 194.647 142.391 193.893C142.494 193.588 142.667 193.315 142.895 193.096C143.123 192.877 143.399 192.72 143.699 192.638C143.89 192.598 144.088 192.629 144.26 192.725C144.432 192.821 144.566 192.977 144.641 193.165C144.749 193.448 144.677 193.642 144.731 193.661C144.785 193.68 144.941 193.511 144.887 193.096C144.845 192.854 144.726 192.633 144.551 192.469C144.303 192.248 143.982 192.137 143.657 192.161C143.265 192.219 142.895 192.38 142.58 192.629C142.265 192.879 142.016 193.208 141.857 193.586C141.413 194.416 141.168 195.346 141.143 196.297C141.095 198.286 141.965 200.2 143.303 200.69C143.552 200.779 143.817 200.811 144.08 200.781C144.342 200.752 144.595 200.663 144.821 200.52C145.085 200.3 145.151 200.081 145.115 200.062Z" fill="#AA6550"/>
<path d="M158.314 191.553C158.442 191.589 158.559 191.66 158.652 191.759C158.745 191.857 158.812 191.98 158.846 192.114C158.88 192.248 158.879 192.389 158.844 192.523C158.809 192.657 158.742 192.778 158.648 192.876C158.554 192.974 158.437 193.044 158.308 193.08C158.18 193.115 158.045 193.115 157.917 193.079C157.79 193.042 157.673 192.972 157.579 192.873C157.486 192.775 157.418 192.653 157.384 192.519C157.362 192.386 157.37 192.25 157.409 192.121C157.448 191.993 157.516 191.876 157.608 191.781C157.699 191.686 157.811 191.616 157.934 191.576C158.057 191.536 158.188 191.528 158.314 191.553Z" fill="#FAFAFA"/>
<path d="M161.29 191.59C161.417 191.628 161.533 191.7 161.625 191.799C161.718 191.898 161.784 192.02 161.816 192.154C161.849 192.288 161.848 192.429 161.813 192.562C161.778 192.695 161.709 192.817 161.615 192.914C161.521 193.011 161.404 193.081 161.277 193.116C161.149 193.151 161.014 193.15 160.887 193.114C160.759 193.078 160.643 193.008 160.549 192.91C160.456 192.812 160.389 192.69 160.354 192.557C160.331 192.423 160.34 192.286 160.379 192.157C160.418 192.028 160.487 191.911 160.579 191.816C160.671 191.721 160.784 191.651 160.908 191.611C161.032 191.572 161.163 191.565 161.29 191.59Z" fill="#FAFAFA"/>
<path d="M185.981 192.638C186.111 192.675 186.229 192.746 186.324 192.846C186.418 192.945 186.486 193.069 186.52 193.204C186.555 193.34 186.554 193.483 186.519 193.618C186.483 193.753 186.414 193.877 186.319 193.975C186.224 194.074 186.105 194.144 185.975 194.179C185.845 194.215 185.709 194.213 185.579 194.176C185.45 194.138 185.333 194.066 185.239 193.965C185.145 193.865 185.078 193.741 185.045 193.605C185.024 193.472 185.034 193.335 185.073 193.207C185.113 193.079 185.182 192.962 185.273 192.867C185.365 192.773 185.477 192.702 185.601 192.662C185.724 192.623 185.854 192.614 185.981 192.638Z" fill="#FAFAFA"/>
<path d="M183.803 192.638C183.93 192.676 184.046 192.748 184.138 192.847C184.23 192.946 184.296 193.068 184.329 193.202C184.362 193.336 184.361 193.477 184.325 193.61C184.29 193.743 184.222 193.865 184.128 193.962C184.034 194.059 183.917 194.129 183.789 194.164C183.661 194.199 183.527 194.198 183.399 194.162C183.272 194.126 183.155 194.056 183.062 193.958C182.969 193.86 182.901 193.738 182.867 193.605C182.844 193.471 182.853 193.334 182.892 193.205C182.931 193.076 183 192.959 183.092 192.864C183.184 192.769 183.297 192.699 183.421 192.659C183.545 192.62 183.676 192.613 183.803 192.638Z" fill="#FAFAFA"/>
<path d="M139.45 191.829C139.443 191.762 139.443 191.695 139.45 191.628C139.45 191.477 139.45 191.289 139.42 191.051C139.4 190.303 139.418 189.556 139.474 188.81C139.692 186.066 140.309 183.372 141.304 180.822C142.815 177.059 144.814 173.53 147.244 170.336C150.177 166.409 153.347 162.682 156.736 159.178C158.536 157.296 160.336 155.532 162.136 153.857C163.808 152.186 165.692 150.763 167.734 149.627C169.624 148.638 171.744 148.227 173.848 148.441C175.666 148.633 177.435 149.171 179.068 150.029C180.41 150.728 181.681 151.569 182.86 152.539C183.898 153.392 184.744 154.189 185.422 154.854C186.1 155.52 186.622 156.053 186.946 156.423C187.108 156.593 187.234 156.731 187.33 156.844C187.375 156.89 187.418 156.941 187.456 156.994L187.306 156.863L186.904 156.467L185.338 154.949C183.422 153.078 181.26 151.504 178.918 150.273C177.305 149.441 175.56 148.922 173.77 148.742C171.714 148.543 169.646 148.956 167.806 149.935C165.79 151.056 163.934 152.467 162.292 154.127C160.522 155.802 158.722 157.572 156.934 159.442C153.554 162.935 150.386 166.644 147.448 170.549C145.021 173.716 143.015 177.212 141.484 180.941C140.483 183.468 139.838 186.133 139.57 188.854C139.48 189.814 139.468 190.567 139.462 191.076C139.462 191.32 139.462 191.509 139.462 191.659C139.462 191.716 139.458 191.773 139.45 191.829Z" fill="#263238"/>
<path d="M186.443 156.787C186.437 156.7 186.437 156.611 186.443 156.524L186.413 155.752C186.357 154.763 186.235 153.779 186.047 152.809C185.314 149.233 183.851 145.866 181.757 142.938C181.078 141.963 180.34 141.035 179.549 140.158C176.813 137.079 173.464 134.667 169.739 133.092C166.91 131.896 163.88 131.309 160.829 131.366C157.554 131.416 154.33 132.22 151.385 133.719C148.415 135.192 145.883 137.48 144.059 140.34C143.223 141.694 142.593 143.176 142.193 144.732C141.831 146.237 141.749 147.801 141.953 149.338C142.157 150.832 142.811 152.187 143.039 153.656C143.157 154.379 143.132 155.12 142.967 155.833C142.813 156.519 142.575 157.181 142.259 157.804C141.659 159.021 140.891 160.082 140.351 161.199C139.808 162.26 139.393 163.388 139.115 164.556C138.618 166.564 138.478 168.651 138.701 170.712C138.862 172.269 139.231 173.794 139.799 175.243C139.899 175.529 140.018 175.808 140.153 176.078C140.273 176.335 140.375 176.58 140.489 176.799C140.729 177.226 140.921 177.596 141.089 177.879L141.497 178.506C141.551 178.575 141.596 178.651 141.629 178.732L141.473 178.525L141.035 177.897C140.843 177.621 140.651 177.27 140.399 176.824C140.279 176.611 140.171 176.366 140.045 176.109C139.906 175.839 139.782 175.56 139.673 175.274C139.082 173.819 138.692 172.283 138.515 170.712C138.27 168.627 138.396 166.512 138.887 164.475C139.166 163.288 139.583 162.141 140.129 161.061C140.669 159.919 141.419 158.858 142.019 157.66C142.701 156.468 142.972 155.068 142.787 153.693C142.565 152.288 141.905 150.926 141.689 149.376C141.468 147.8 141.548 146.194 141.923 144.651C142.326 143.052 142.966 141.53 143.819 140.139C145.66 137.23 148.221 134.899 151.229 133.393C154.221 131.867 157.5 131.055 160.829 131.014C163.912 130.968 166.972 131.567 169.829 132.778C172.417 133.863 174.827 135.366 176.969 137.233C177.944 138.071 178.862 138.979 179.717 139.951C180.507 140.844 181.245 141.787 181.925 142.774C184.015 145.737 185.459 149.143 186.155 152.752C186.328 153.732 186.432 154.724 186.467 155.72C186.467 156.059 186.467 156.348 186.467 156.492C186.467 156.637 186.443 156.787 186.443 156.787Z" fill="#263238"/>
<path d="M142.558 156.304C142.543 156.206 142.543 156.107 142.558 156.009C142.588 155.725 142.646 155.446 142.732 155.175C143.068 154.179 143.655 153.297 144.43 152.62C145.591 151.667 146.858 150.864 148.204 150.23C149.776 149.344 151.258 148.292 152.626 147.092C154.102 145.837 155.458 144.582 156.754 143.484C157.89 142.502 159.109 141.63 160.396 140.879C160.894 140.597 161.407 140.343 161.932 140.12C162.4 139.932 162.814 139.8 163.132 139.687L163.918 139.511C164.01 139.487 164.105 139.472 164.2 139.467C162.906 139.852 161.66 140.393 160.486 141.08C159.23 141.853 158.038 142.735 156.922 143.716C155.638 144.808 154.294 146.082 152.806 147.349C151.418 148.555 149.914 149.606 148.318 150.487C146.983 151.098 145.721 151.869 144.556 152.784C143.794 153.426 143.199 154.259 142.828 155.206C142.71 155.564 142.619 155.931 142.558 156.304Z" fill="#263238"/>
<path d="M132.411 165.523C132.427 165.627 132.427 165.732 132.411 165.836V166.721C132.411 167.543 132.357 168.648 132.315 169.991C132.225 172.752 132.081 176.561 131.997 180.765C131.913 184.97 131.937 188.792 131.997 191.546C132.039 192.927 132.081 194.057 132.111 194.81C132.111 195.167 132.111 195.437 132.141 195.701C132.158 195.802 132.158 195.906 132.141 196.008C132.116 195.908 132.1 195.805 132.093 195.701L132.003 194.816C131.931 194.05 131.859 192.933 131.787 191.553C131.649 188.798 131.589 184.976 131.673 180.759C131.757 176.542 131.937 172.739 132.087 169.978C132.165 168.641 132.231 167.537 132.279 166.715C132.279 166.363 132.327 166.087 132.345 165.83C132.355 165.725 132.377 165.622 132.411 165.523Z" fill="#263238"/>
<path d="M137.254 146.778C137.396 146.767 137.538 146.784 137.674 146.828C138.049 146.905 138.413 147.027 138.76 147.192C139.284 147.427 139.78 147.726 140.236 148.083C140.786 148.533 141.282 149.052 141.712 149.627C142.129 150.207 142.474 150.839 142.738 151.51C142.953 152.061 143.1 152.639 143.176 153.229C143.236 153.625 143.253 154.028 143.224 154.428C143.225 154.575 143.202 154.721 143.158 154.861C143.098 154.861 143.158 154.233 142.96 153.267C142.852 152.703 142.689 152.152 142.474 151.623C141.948 150.326 141.124 149.185 140.074 148.303C139.644 147.946 139.18 147.636 138.688 147.381C137.824 146.966 137.242 146.841 137.254 146.778Z" fill="#263238"/>
<path d="M136.326 153.411C136.596 153.092 136.939 152.85 137.322 152.708C138.229 152.292 139.243 152.204 140.204 152.457C141.164 152.711 142.016 153.291 142.626 154.108C142.902 154.42 143.092 154.803 143.178 155.218C143.13 155.218 142.938 154.811 142.458 154.258C141.84 153.531 141.027 153.015 140.125 152.778C139.223 152.541 138.273 152.593 137.4 152.928C136.728 153.166 136.356 153.449 136.326 153.411Z" fill="#263238"/>
<path d="M175.678 148.698C175.875 149.211 175.892 149.78 175.726 150.305C175.59 150.881 175.352 151.426 175.024 151.911C174.624 152.496 174.165 153.034 173.656 153.518C172.606 154.553 171.646 155.463 170.938 156.116C170.571 156.493 170.169 156.832 169.738 157.126C170.041 156.694 170.389 156.298 170.776 155.946C171.442 155.256 172.384 154.308 173.428 153.279C173.921 152.812 174.371 152.297 174.772 151.742C175.093 151.29 175.338 150.785 175.498 150.248C175.63 149.744 175.691 149.221 175.678 148.698Z" fill="#263238"/>
<path d="M133.727 163.314C133.781 163.245 134.237 163.521 134.843 163.766C135.449 164.011 135.959 164.13 135.947 164.224C135.542 164.324 135.116 164.269 134.747 164.067C134.081 163.81 133.673 163.383 133.727 163.314Z" fill="#263238"/>
<path d="M134.266 161.531C134.302 161.456 134.71 161.588 135.178 161.833C135.646 162.078 135.988 162.348 135.946 162.461C135.904 162.574 135.502 162.404 135.034 162.159C134.566 161.914 134.224 161.613 134.266 161.531Z" fill="#263238"/>
<path d="M134.537 159.856C134.585 159.781 135.017 160 135.497 160.352C135.977 160.704 136.331 161.043 136.283 161.118C136.235 161.194 135.803 160.968 135.323 160.622C134.843 160.277 134.489 159.925 134.537 159.856Z" fill="#263238"/>
<path d="M124.685 179.548C124.727 179.466 125.093 179.586 125.507 179.805C125.921 180.025 126.227 180.276 126.185 180.358C126.143 180.44 125.777 180.32 125.363 180.101C124.949 179.881 124.643 179.63 124.685 179.548Z" fill="#263238"/>
<path d="M192.376 165.504C192.376 165.416 192.838 165.353 193.402 165.359C193.966 165.366 194.422 165.454 194.422 165.548C194.422 165.642 193.96 165.699 193.396 165.686C192.832 165.673 192.376 165.598 192.376 165.504Z" fill="#263238"/>
<path d="M191.619 164.469C191.619 164.381 192.009 164.243 192.525 164.167C193.041 164.092 193.461 164.104 193.473 164.167C193.485 164.23 193.077 164.393 192.567 164.469C192.057 164.544 191.631 164.557 191.619 164.469Z" fill="#263238"/>
<path d="M191.243 163.628C191.183 163.559 191.423 163.233 191.771 162.894C192.119 162.554 192.461 162.335 192.515 162.404C192.569 162.473 192.335 162.793 191.987 163.132C191.639 163.471 191.297 163.691 191.243 163.628Z" fill="#263238"/>
<path d="M155.153 142.699C155.237 142.699 155.411 143.176 155.537 143.797C155.663 144.419 155.693 144.939 155.609 144.958C155.525 144.977 155.357 144.488 155.231 143.86C155.105 143.233 155.069 142.743 155.153 142.699Z" fill="#263238"/>
<path d="M154.121 144.136C154.199 144.099 154.403 144.362 154.577 144.727C154.751 145.091 154.829 145.417 154.751 145.461C154.673 145.505 154.475 145.235 154.301 144.871C154.127 144.507 154.049 144.18 154.121 144.136Z" fill="#263238"/>
<path d="M152.873 145.253C152.921 145.178 153.221 145.316 153.539 145.554C153.857 145.793 154.073 146.051 154.019 146.126C153.965 146.201 153.671 146.063 153.353 145.818C153.035 145.573 152.819 145.347 152.873 145.253Z" fill="#263238"/>
<g opacity="0.3">
<path d="M138.31 147.562C140.26 148.585 141.19 151.077 141.028 153.355C140.866 155.633 139.828 157.747 138.688 159.68C137.548 161.613 136.288 163.521 135.568 165.686C134.829 168.099 134.817 170.692 135.535 173.113C136.253 175.533 137.666 177.664 139.582 179.215C139.73 179.361 139.905 179.475 140.096 179.548C140.286 179.621 140.489 179.653 140.692 179.642C140.953 179.554 141.174 179.368 141.312 179.12C141.451 178.873 141.497 178.58 141.442 178.299C141.317 177.74 141.077 177.215 140.74 176.762C139.329 174.405 138.551 171.694 138.49 168.914C138.429 166.134 139.086 163.388 140.392 160.967C141.382 159.184 142.75 157.528 143.02 155.488C143.174 153.896 142.78 152.299 141.91 150.983C141.04 149.682 139.983 148.528 138.778 147.562" fill="black"/>
</g>
<g opacity="0.3">
<path d="M169.998 156.706C171.465 155.874 172.745 154.727 173.756 153.339C174.767 151.951 175.484 150.354 175.86 148.655C176.422 149.568 176.704 150.64 176.666 151.725C176.629 152.811 176.275 153.858 175.652 154.727C175.029 155.597 174.166 156.245 173.18 156.587C172.194 156.928 171.132 156.945 170.136 156.637L171.678 156.856" fill="black"/>
</g>
<g opacity="0.3">
<path d="M132.311 168.849C130.626 175.284 129.715 181.913 129.599 188.584C129.552 189.869 129.669 191.154 129.947 192.406C130.23 193.671 130.942 194.786 131.951 195.544C131.735 186.708 132.551 177.697 132.311 168.855" fill="black"/>
</g>
<g opacity="0.3">
<path d="M143.459 154.29C143.651 152.068 143.975 149.596 145.655 148.228C146.543 147.506 147.677 147.224 148.655 146.684C150.605 145.63 151.937 143.678 153.455 142.022C154.994 140.236 156.95 138.9 159.131 138.143C160.223 137.774 161.381 137.667 162.518 137.828C163.655 137.99 164.743 138.418 165.701 139.078C161.962 139.614 158.48 141.371 155.753 144.099C153.827 146.032 152.285 148.448 149.969 149.828C148.685 150.594 147.239 151.002 145.889 151.635C144.539 152.269 143.231 153.223 142.667 154.648" fill="black"/>
</g>
<g opacity="0.3">
<path d="M150.012 167.047C152.868 162.272 153.708 160.345 157.488 156.335C161.268 152.326 166.062 149.125 171.396 148.36C167.01 149.389 163.524 152.821 160.152 155.934C156.675 159.337 153.371 162.927 150.252 166.69" fill="black"/>
</g>
<path d="M151.918 173.493C151.918 173.581 151.402 173.493 150.838 173.254C150.274 173.016 149.83 172.79 149.86 172.702C149.89 172.614 150.376 172.702 150.94 172.947C151.504 173.191 151.948 173.43 151.918 173.493Z" fill="#263238"/>
<path d="M152.848 172.527C152.788 172.596 152.338 172.282 151.75 171.968C151.162 171.654 150.652 171.447 150.676 171.34C151.099 171.301 151.522 171.414 151.876 171.66C152.518 172.012 152.902 172.464 152.848 172.527Z" fill="#263238"/>
<path d="M153.207 171.327C153.135 171.377 152.871 171.101 152.607 170.7C152.343 170.298 152.205 169.947 152.277 169.896C152.349 169.846 152.613 170.122 152.877 170.524C153.141 170.926 153.279 171.277 153.207 171.327Z" fill="#263238"/>
<path d="M169.306 158.193C169.456 160.772 170.236 163.508 172.21 165.096C175.876 168.001 181.738 165.579 185.374 168.522C182.632 164.518 178.774 161.55 174.946 158.657C174.08 157.896 173.07 157.333 171.982 157.007C171.431 156.85 170.847 156.875 170.311 157.078C169.774 157.281 169.31 157.653 168.982 158.143" fill="#263238"/>
<path d="M193.258 207.492C192.502 205.296 191.77 202.961 192.184 200.671C192.46 199.14 193.24 197.677 193.09 196.134C192.964 194.879 192.238 193.774 191.686 192.645C190.204 189.614 189.844 185.892 189.61 182.497C189.61 190.944 189.01 199.761 189.01 208.226C189.01 209.419 189.01 210.686 189.676 211.659C190.198 212.437 191.044 212.914 191.608 213.642C191.891 214.064 192.082 214.547 192.166 215.055C192.25 215.563 192.226 216.085 192.095 216.582C191.963 217.079 191.728 217.54 191.407 217.931C191.085 218.322 190.684 218.634 190.234 218.844C192.466 218.932 194.242 216.635 194.53 214.32C194.818 212.004 194.026 209.688 193.258 207.492Z" fill="#263238"/>
<path d="M147.952 190.498C148.318 191.967 149.608 192.306 150.256 191.126C150.721 190.148 151.096 189.127 151.378 188.076C152.088 185.75 152.259 183.281 151.876 180.872C150.351 183.975 149.039 187.187 147.952 190.486" fill="#263238"/>
<path d="M120.112 331.072C124.444 334.329 130.786 332.886 134.854 329.277C138.922 325.669 141.25 320.417 143.458 315.315C149.128 302.237 154.828 289.078 158.248 275.153C159.556 269.831 160.504 264.089 158.686 258.931C153.76 271.695 148.816 284.484 142.618 296.627C136.42 308.77 128.902 320.335 119.368 329.817" fill="#E0E0E0"/>
<path d="M124.51 232.926C124.51 232.926 112.792 237.576 110.536 252.794C108.28 268.011 111.658 314.21 111.658 319.394C111.658 324.577 116.62 335.421 129.688 328.807C142.756 322.193 162.964 248.564 162.964 248.564L151.108 245.307L133.03 282.332L133.33 254.218L124.51 232.926Z" fill="#C78976"/>
<path d="M149.89 248.005C149.881 248.054 149.865 248.1 149.842 248.144L149.662 248.545L148.954 250.051L146.302 255.599C144.046 260.28 140.902 266.725 137.398 273.797C133.894 280.869 130.69 287.32 128.32 291.933C127.12 294.242 126.16 296.1 125.458 297.374C125.11 298.001 124.858 298.497 124.63 298.817C124.528 298.98 124.444 299.099 124.384 299.181C124.361 299.212 124.332 299.237 124.3 299.256C124.258 299.256 124.3 299.219 124.3 299.256C124.3 299.294 124.42 299.131 124.6 298.811C124.78 298.491 125.044 297.982 125.38 297.336L128.146 291.851L137.146 273.653C140.65 266.568 143.818 260.148 146.146 255.454C147.298 253.151 148.228 251.275 148.888 249.951L149.65 248.464L149.854 248.081C149.86 248.043 149.884 247.999 149.89 248.005Z" fill="#AA6550"/>
<path d="M132.659 252.787C132.716 253.043 132.748 253.304 132.756 253.566C132.804 254.068 132.851 254.789 132.899 255.687C133.001 257.481 133.091 259.966 133.109 262.702C133.127 265.438 133.068 267.93 132.99 269.725C132.954 270.622 132.911 271.35 132.875 271.852C132.871 272.114 132.841 272.375 132.786 272.63C132.758 272.369 132.758 272.106 132.786 271.846C132.786 271.275 132.786 270.591 132.786 269.718C132.786 267.924 132.828 265.445 132.786 262.709C132.744 259.973 132.72 257.494 132.672 255.699C132.672 254.852 132.641 254.143 132.629 253.572C132.61 253.31 132.62 253.047 132.659 252.787Z" fill="#AA6550"/>
<path d="M163.989 205.779C163.497 205.151 163.479 204.229 163.245 203.438C163.011 202.647 162.291 201.838 161.541 202.108C160.791 202.378 160.647 203.451 159.975 203.859C159.459 204.172 158.811 204.003 158.211 203.959C157.611 203.915 156.873 204.141 156.771 204.756C156.729 205.032 156.837 205.308 156.813 205.578C156.753 206.243 156.021 206.601 155.745 207.203C155.656 207.436 155.635 207.691 155.685 207.936C155.735 208.181 155.855 208.405 156.028 208.579C156.201 208.752 156.419 208.868 156.656 208.91C156.892 208.952 157.135 208.92 157.353 208.816L162.261 210.071C162.195 210.573 162.909 210.849 163.305 210.554C163.481 210.383 163.618 210.172 163.704 209.937C163.79 209.702 163.824 209.45 163.803 209.199C163.76 208.697 163.83 208.192 164.007 207.724C164.193 207.373 164.541 207.097 164.523 206.67C164.505 206.243 164.199 206.061 163.989 205.779Z" fill="#FAFAFA"/>
<path d="M149.458 248.614C149.458 248.614 152.698 244.435 152.014 239.684C151.33 234.934 150.934 228.232 150.814 226.92C150.752 225.733 150.752 224.543 150.814 223.356L149.458 216.585L152.866 206.369C152.866 206.369 154.666 206.249 154.228 209.695C153.79 213.14 153.208 217.539 153.208 217.539L158.092 207.084C158.491 206.969 158.916 207.017 159.281 207.221C159.646 207.424 159.923 207.766 160.054 208.176L161.338 205.107C161.338 205.107 163.318 207.084 162.406 209.218C161.494 211.351 157.606 222.766 157.606 222.766L158.632 227.159C158.632 227.159 164.59 241.297 163.882 244.981C163.174 248.664 162.262 249.851 162.262 249.851L158.662 263.029" fill="#C78976"/>
<path d="M158.723 263.01C158.723 263.01 158.723 262.928 158.771 262.784L158.939 262.119C159.101 261.491 159.323 260.657 159.617 259.533C160.217 257.268 161.105 253.98 162.215 249.826C162.619 249.152 162.932 248.424 163.145 247.661C163.389 246.836 163.589 245.998 163.745 245.15C163.864 244.246 163.821 243.327 163.619 242.439C163.457 241.511 163.217 240.557 162.953 239.603C161.7 235.397 160.213 231.272 158.501 227.247C158.177 225.873 157.829 224.373 157.475 222.854V222.81V222.773L160.439 214.144C160.967 212.657 161.495 211.138 162.083 209.619C162.244 209.261 162.365 208.884 162.443 208.496C162.489 208.105 162.463 207.709 162.365 207.329C162.149 206.556 161.751 205.853 161.207 205.283L161.453 205.227L160.175 208.302L160.031 208.634L159.887 208.302C159.742 207.948 159.5 207.646 159.191 207.436C158.865 207.242 158.48 207.19 158.117 207.291L158.207 207.21L158.147 207.348L153.347 217.664L152.927 218.562L153.053 217.57C153.323 215.512 153.593 213.485 153.851 211.502C154.008 210.535 154.108 209.558 154.151 208.578C154.155 208.112 154.054 207.652 153.857 207.235C153.761 207.047 153.621 206.888 153.45 206.773C153.279 206.658 153.082 206.59 152.879 206.576L153.005 206.475L149.585 216.692V216.616C150.061 219.001 150.511 221.258 150.935 223.387V223.419C150.887 224.41 150.863 225.377 150.893 226.318C150.923 227.259 151.019 228.201 151.079 229.067C151.205 230.861 151.331 232.549 151.475 234.131C151.619 235.712 151.763 237.181 151.931 238.524C152.015 239.201 152.111 239.841 152.153 240.475C152.153 240.789 152.153 241.103 152.153 241.398C152.153 241.693 152.105 241.981 152.087 242.264C151.848 243.994 151.283 245.658 150.425 247.158C150.137 247.673 149.885 248.05 149.717 248.294C149.632 248.422 149.537 248.544 149.435 248.658L149.687 248.275C149.849 248.018 150.089 247.648 150.365 247.121C151.184 245.617 151.721 243.965 151.949 242.251C151.949 241.969 151.997 241.686 152.003 241.391C152.009 241.097 152.003 240.795 152.003 240.482C151.955 239.854 151.859 239.226 151.769 238.549C151.595 237.193 151.433 235.719 151.283 234.156C151.133 232.593 150.995 230.88 150.863 229.092C150.803 228.194 150.713 227.291 150.665 226.331C150.617 225.371 150.665 224.41 150.695 223.413V223.45C150.263 221.31 149.807 219.058 149.321 216.679V216.642V216.604L152.717 206.381L152.753 206.281H152.849C153.107 206.288 153.359 206.366 153.578 206.508C153.798 206.651 153.977 206.852 154.097 207.09C154.324 207.548 154.439 208.056 154.433 208.571C154.396 209.571 154.298 210.566 154.139 211.552C153.881 213.535 153.617 215.562 153.347 217.62L153.059 217.526L157.859 207.21L157.925 207.072V207.009H157.985C158.206 206.942 158.437 206.922 158.665 206.951C158.893 206.981 159.113 207.058 159.311 207.178C159.678 207.421 159.966 207.773 160.139 208.189H159.851L161.135 205.114L161.225 204.894L161.381 205.064C161.971 205.674 162.4 206.432 162.629 207.266C162.735 207.688 162.764 208.126 162.713 208.559C162.634 208.974 162.505 209.377 162.329 209.757C161.729 211.27 161.213 212.782 160.691 214.269C159.659 217.256 158.659 220.131 157.691 222.892V222.804C158.045 224.329 158.387 225.829 158.705 227.197C160.412 231.237 161.889 235.38 163.127 239.603C163.391 240.569 163.631 241.523 163.793 242.465C163.993 243.383 164.03 244.331 163.901 245.263C163.736 246.113 163.522 246.951 163.259 247.773C163.035 248.557 162.708 249.305 162.287 249.995V249.957C161.141 254.105 160.235 257.387 159.605 259.646L158.885 262.213L158.693 262.872C158.753 262.935 158.723 263.01 158.723 263.01Z" fill="#AA6550"/>
<path d="M154.984 231.571C154.924 231.399 154.877 231.223 154.846 231.043L154.552 229.556C154.3 228.219 153.952 226.418 153.574 224.266V224.228V224.184C154.246 222.478 155.008 220.52 155.818 218.443C156.418 216.943 156.982 215.506 157.51 214.188L157.564 214.05L157.696 214.106C158.015 214.245 158.28 214.493 158.446 214.809C158.597 215.097 158.702 215.409 158.758 215.732C158.851 216.314 158.873 216.907 158.824 217.495C158.75 218.454 158.599 219.405 158.374 220.338C158.194 221.116 158.014 221.725 157.882 222.139C157.825 222.357 157.745 222.567 157.642 222.766C157.672 222.543 157.72 222.322 157.786 222.107C157.888 221.687 158.038 221.072 158.2 220.294C158.39 219.367 158.517 218.428 158.578 217.482C158.613 216.916 158.583 216.347 158.488 215.788C158.461 215.495 158.364 215.214 158.207 214.969C158.05 214.725 157.837 214.526 157.588 214.389L157.78 214.307C157.264 215.625 156.7 217.068 156.106 218.568L153.838 224.323V224.241C154.192 226.387 154.486 228.207 154.708 229.55C154.798 230.177 154.87 230.661 154.93 231.056C154.966 231.225 154.984 231.397 154.984 231.571Z" fill="#AA6550"/>
<path d="M157.348 214.753C157.312 214.753 157.54 214.2 157.792 213.29C157.93 212.832 158.074 212.286 158.284 211.69C158.494 211.094 158.812 210.435 159.094 209.808C159.694 208.49 160.222 207.297 160.63 206.457C160.82 205.98 161.062 205.527 161.35 205.107C161.224 205.606 161.049 206.09 160.828 206.551C160.468 207.429 159.958 208.634 159.37 209.952C159.088 210.623 158.77 211.207 158.554 211.797C158.338 212.387 158.164 212.914 158.002 213.359C157.87 213.863 157.648 214.336 157.348 214.753Z" fill="#AA6550"/>
<path d="M153.316 217.325C153.2 217.994 153.03 218.651 152.806 219.29C152.611 219.99 152.55 220.723 152.626 221.448C152.668 222.277 152.728 223.193 152.8 224.147C152.944 226.061 153.124 227.793 153.256 229.048C153.353 229.721 153.409 230.4 153.424 231.081C153.233 230.428 153.103 229.758 153.034 229.079C152.848 227.824 152.638 226.098 152.488 224.172C152.416 223.212 152.368 222.289 152.338 221.461C152.274 220.708 152.36 219.949 152.59 219.233C152.786 218.579 153.029 217.941 153.316 217.325Z" fill="#AA6550"/>
<path d="M127.99 170.445L126.574 169.678L127.99 170.445Z" fill="#B36370"/>
<path d="M141.801 206.753L142.473 208.416L143.901 209.439L142.311 210.142L141.333 211.635L140.661 209.972L139.233 208.949L140.823 208.247L141.801 206.753Z" fill="#B36370"/>
<path d="M117.687 185.097L119.871 185.925L122.127 185.392L121.335 187.676L121.845 190.042L119.667 189.207L117.399 189.741L118.197 187.463L117.687 185.097Z" fill="#B36370"/>
<path d="M210.382 171.047L212.548 171.875L214.798 171.348L214.012 173.613L214.516 175.973L212.344 175.144L210.094 175.671L210.886 173.406L210.382 171.047Z" fill="#B36370"/>
<path d="M120.154 200.089L120.652 200.886L121.486 201.275L120.724 201.802L120.352 202.668L119.848 201.871L119.014 201.482L119.776 200.961L120.154 200.089Z" fill="#B36370"/>
<path d="M205.63 159.443L206.134 160.24L206.968 160.629L206.2 161.157L205.828 162.029L205.33 161.226L204.496 160.836L205.258 160.316L205.63 159.443Z" fill="#B36370"/>
</g>
<defs>
<clipPath id="clip0_367_1345">
<rect width="300" height="313.767" fill="white" transform="translate(17 56.233)"/>
</clipPath>
</defs>
</svg>
